<?xml version="1.0" encoding="utf-8" standalone="no"?>
<!DOCTYPE svg PUBLIC "-//W3C//DTD SVG 1.1//EN"
  "http://www.w3.org/Graphics/SVG/1.1/DTD/svg11.dtd">
<svg xmlns:xlink="http://www.w3.org/1999/xlink" width="576pt" height="432pt" viewBox="0 0 576 432" xmlns="http://www.w3.org/2000/svg" version="1.1">
 <metadata>
  <rdf:RDF xmlns:dc="http://purl.org/dc/elements/1.1/" xmlns:cc="http://creativecommons.org/ns#" xmlns:rdf="http://www.w3.org/1999/02/22-rdf-syntax-ns#">
   <cc:Work>
    <dc:type rdf:resource="http://purl.org/dc/dcmitype/StillImage"/>
    <dc:date>2024-03-29T15:27:47.682475</dc:date>
    <dc:format>image/svg+xml</dc:format>
    <dc:creator>
     <cc:Agent>
      <dc:title>Matplotlib v3.7.1, https://matplotlib.org/</dc:title>
     </cc:Agent>
    </dc:creator>
   </cc:Work>
  </rdf:RDF>
 </metadata>
 <defs>
  <style type="text/css">*{stroke-linejoin: round; stroke-linecap: butt}</style>
 </defs>
 <g id="figure_1">
  <g id="patch_1">
   <path d="M 0 432 
L 576 432 
L 576 0 
L 0 0 
z
" style="fill: #ffffff"/>
  </g>
  <g id="axes_1">
   <g id="patch_2">
    <path d="M 72 384.48 
L 518.4 384.48 
L 518.4 51.84 
L 72 51.84 
z
" style="fill: #ffffff"/>
   </g>
   <g id="line2d_1">
    <path d="M 72 384.48 
L 72.170091 354.211756 
L 114.267654 354.211756 
L 114.437745 278.541145 
L 156.535307 278.541145 
L 156.705398 202.870535 
L 198.888006 202.870535 
L 199.058097 142.334046 
L 241.15566 142.334046 
L 241.325751 112.065802 
L 283.508359 112.065802 
L 283.67845 81.797558 
L 325.776012 81.797558 
L 325.946104 96.93168 
L 368.043666 96.93168 
L 368.213757 127.199924 
L 410.396365 127.199924 
L 410.566456 172.602291 
L 452.664019 172.602291 
L 452.83411 293.675267 
L 495.016718 293.675267 
L 495.186809 384.48 
L 497.142857 384.48 
L 497.142857 384.48 
" clip-path="url(#pe8466b28de)" style="fill: none; stroke: #003a66; stroke-opacity: 0.5; stroke-linecap: square"/>
   </g>
   <g id="PolyCollection_1">
    <defs>
     <path id="mddfbce9d80" d="M 93.154081 -70.583009 
L 93.148691 -70.583009 
L 93.148628 -70.927179 
L 93.14751 -71.27135 
L 93.1442 -71.61552 
L 93.1398 -71.95969 
L 93.133329 -72.30386 
L 93.11561 -72.64803 
L 93.078593 -72.992201 
L 93.023552 -73.336371 
L 92.949009 -73.680541 
L 92.842882 -74.024711 
L 92.685064 -74.368882 
L 92.458192 -74.713052 
L 92.179299 -75.057222 
L 91.892315 -75.401392 
L 91.576588 -75.745562 
L 91.142167 -76.089733 
L 90.55899 -76.433903 
L 89.918329 -76.778073 
L 89.283505 -77.122243 
L 88.635329 -77.466413 
L 87.955561 -77.810584 
L 87.187269 -78.154754 
L 86.367663 -78.498924 
L 85.56658 -78.843094 
L 84.725561 -79.187265 
L 83.786941 -79.531435 
L 82.748254 -79.875605 
L 81.763233 -80.219775 
L 81.030273 -80.563945 
L 80.372079 -80.908116 
L 79.563847 -81.252286 
L 78.783573 -81.596456 
L 78.345416 -81.940626 
L 78.46289 -82.284796 
L 78.961793 -82.628967 
L 79.407842 -82.973137 
L 79.547244 -83.317307 
L 79.507865 -83.661477 
L 79.517542 -84.005648 
L 79.602935 -84.349818 
L 79.725169 -84.693988 
L 79.901534 -85.038158 
L 80.123563 -85.382328 
L 80.438207 -85.726499 
L 80.938662 -86.070669 
L 81.672025 -86.414839 
L 82.554738 -86.759009 
L 83.52999 -87.10318 
L 84.504608 -87.44735 
L 85.26922 -87.79152 
L 85.885594 -88.13569 
L 86.533989 -88.47986 
L 87.185239 -88.824031 
L 87.750209 -89.168201 
L 88.225276 -89.512371 
L 88.630057 -89.856541 
L 89.039918 -90.200711 
L 89.490909 -90.544882 
L 89.885448 -90.889052 
L 90.194478 -91.233222 
L 90.547399 -91.577392 
L 90.942341 -91.921563 
L 91.219437 -92.265733 
L 91.361286 -92.609903 
L 91.483348 -92.954073 
L 91.665948 -93.298243 
L 91.889747 -93.642414 
L 92.097437 -93.986584 
L 92.249838 -94.330754 
L 92.361704 -94.674924 
L 92.460327 -95.019094 
L 92.538644 -95.363265 
L 92.605464 -95.707435 
L 92.693646 -96.051605 
L 92.793725 -96.395775 
L 92.860883 -96.739946 
L 92.895179 -97.084116 
L 92.930968 -97.428286 
L 92.969165 -97.772456 
L 92.993822 -98.116626 
L 93.009606 -98.460797 
L 93.023084 -98.804967 
L 93.038905 -99.149137 
L 93.059953 -99.493307 
L 93.079098 -99.837477 
L 93.086636 -100.181648 
L 93.090123 -100.525818 
L 93.100236 -100.869988 
L 93.107758 -101.214158 
L 93.110793 -101.558329 
L 93.114652 -101.902499 
L 93.121799 -102.246669 
L 93.131249 -102.590839 
L 93.138755 -102.935009 
L 93.143095 -103.27918 
L 93.146203 -103.62335 
L 93.149023 -103.96752 
L 93.150079 -104.31169 
L 93.150084 -104.65586 
L 93.152688 -104.65586 
L 93.152688 -104.65586 
L 93.152692 -104.31169 
L 93.153749 -103.96752 
L 93.156569 -103.62335 
L 93.159677 -103.27918 
L 93.164016 -102.935009 
L 93.171523 -102.590839 
L 93.180973 -102.246669 
L 93.18812 -101.902499 
L 93.191979 -101.558329 
L 93.195013 -101.214158 
L 93.202536 -100.869988 
L 93.212649 -100.525818 
L 93.216135 -100.181648 
L 93.223674 -99.837477 
L 93.242819 -99.493307 
L 93.263867 -99.149137 
L 93.279688 -98.804967 
L 93.293166 -98.460797 
L 93.30895 -98.116626 
L 93.333607 -97.772456 
L 93.371803 -97.428286 
L 93.407593 -97.084116 
L 93.441889 -96.739946 
L 93.509047 -96.395775 
L 93.609126 -96.051605 
L 93.697307 -95.707435 
L 93.764128 -95.363265 
L 93.842445 -95.019094 
L 93.941068 -94.674924 
L 94.052933 -94.330754 
L 94.205335 -93.986584 
L 94.413024 -93.642414 
L 94.636824 -93.298243 
L 94.819424 -92.954073 
L 94.941486 -92.609903 
L 95.083335 -92.265733 
L 95.360431 -91.921563 
L 95.755373 -91.577392 
L 96.108294 -91.233222 
L 96.417323 -90.889052 
L 96.811863 -90.544882 
L 97.262854 -90.200711 
L 97.672715 -89.856541 
L 98.077496 -89.512371 
L 98.552563 -89.168201 
L 99.117532 -88.824031 
L 99.768782 -88.47986 
L 100.417178 -88.13569 
L 101.033551 -87.79152 
L 101.798164 -87.44735 
L 102.772782 -87.10318 
L 103.748034 -86.759009 
L 104.630747 -86.414839 
L 105.36411 -86.070669 
L 105.864564 -85.726499 
L 106.179209 -85.382328 
L 106.401238 -85.038158 
L 106.577603 -84.693988 
L 106.699837 -84.349818 
L 106.78523 -84.005648 
L 106.794907 -83.661477 
L 106.755528 -83.317307 
L 106.894929 -82.973137 
L 107.340978 -82.628967 
L 107.839882 -82.284796 
L 107.957356 -81.940626 
L 107.519199 -81.596456 
L 106.738925 -81.252286 
L 105.930693 -80.908116 
L 105.272499 -80.563945 
L 104.539538 -80.219775 
L 103.554518 -79.875605 
L 102.515831 -79.531435 
L 101.577211 -79.187265 
L 100.736192 -78.843094 
L 99.935109 -78.498924 
L 99.115503 -78.154754 
L 98.347211 -77.810584 
L 97.667443 -77.466413 
L 97.019266 -77.122243 
L 96.384443 -76.778073 
L 95.743781 -76.433903 
L 95.160605 -76.089733 
L 94.726184 -75.745562 
L 94.410457 -75.401392 
L 94.123473 -75.057222 
L 93.84458 -74.713052 
L 93.617708 -74.368882 
L 93.45989 -74.024711 
L 93.353763 -73.680541 
L 93.279219 -73.336371 
L 93.224179 -72.992201 
L 93.187162 -72.64803 
L 93.169443 -72.30386 
L 93.162972 -71.95969 
L 93.158572 -71.61552 
L 93.155262 -71.27135 
L 93.154144 -70.927179 
L 93.154081 -70.583009 
z
" style="stroke: #008000; stroke-opacity: 0.7"/>
    </defs>
    <g clip-path="url(#pe8466b28de)">
     <use xlink:href="#mddfbce9d80" x="0" y="432" style="fill: #008000; fill-opacity: 0.7; stroke: #008000; stroke-opacity: 0.7"/>
    </g>
   </g>
   <g id="PolyCollection_2">
    <defs>
     <path id="m62dc3b9999" d="M 135.457274 -138.965784 
L 135.451042 -138.965784 
L 135.449463 -139.269457 
L 135.443344 -139.573129 
L 135.430935 -139.876802 
L 135.418186 -140.180474 
L 135.411704 -140.484146 
L 135.408614 -140.787819 
L 135.403568 -141.091491 
L 135.395191 -141.395163 
L 135.37386 -141.698836 
L 135.329853 -142.002508 
L 135.274121 -142.306181 
L 135.210033 -142.609853 
L 135.101533 -142.913525 
L 134.928398 -143.217198 
L 134.738234 -143.52087 
L 134.563469 -143.824543 
L 134.337054 -144.128215 
L 133.994202 -144.431887 
L 133.582925 -144.73556 
L 133.183129 -145.039232 
L 132.814473 -145.342905 
L 132.421153 -145.646577 
L 131.948943 -145.950249 
L 131.410259 -146.253922 
L 130.827625 -146.557594 
L 130.21315 -146.861266 
L 129.604496 -147.164939 
L 128.942162 -147.468611 
L 127.989312 -147.772284 
L 126.736987 -148.075956 
L 125.611269 -148.379628 
L 124.870523 -148.683301 
L 124.350896 -148.986973 
L 123.860761 -149.290646 
L 123.242539 -149.594318 
L 122.560275 -149.89799 
L 122.087432 -150.201663 
L 121.845077 -150.505335 
L 121.65967 -150.809008 
L 121.414874 -151.11268 
L 121.098679 -151.416352 
L 120.800446 -151.720025 
L 120.648188 -152.023697 
L 120.731197 -152.327369 
L 120.944832 -152.631042 
L 121.107865 -152.934714 
L 121.224072 -153.238387 
L 121.338061 -153.542059 
L 121.641699 -153.845731 
L 122.247304 -154.149404 
L 122.917018 -154.453076 
L 123.566658 -154.756749 
L 124.225223 -155.060421 
L 124.773521 -155.364093 
L 125.282231 -155.667766 
L 125.888954 -155.971438 
L 126.531087 -156.275111 
L 127.21426 -156.578783 
L 127.916563 -156.882455 
L 128.471551 -157.186128 
L 128.920305 -157.4898 
L 129.455672 -157.793473 
L 130.074486 -158.097145 
L 130.616423 -158.400817 
L 131.069603 -158.70449 
L 131.517632 -159.008162 
L 131.943047 -159.311834 
L 132.364358 -159.615507 
L 132.806476 -159.919179 
L 133.213026 -160.222852 
L 133.569554 -160.526524 
L 133.901138 -160.830196 
L 134.215362 -161.133869 
L 134.447032 -161.437541 
L 134.57535 -161.741214 
L 134.697788 -162.044886 
L 134.846353 -162.348558 
L 134.983894 -162.652231 
L 135.089885 -162.955903 
L 135.141199 -163.259576 
L 135.158412 -163.563248 
L 135.205083 -163.86692 
L 135.281614 -164.170593 
L 135.333793 -164.474265 
L 135.347676 -164.777937 
L 135.35105 -165.08161 
L 135.367739 -165.385282 
L 135.394041 -165.688955 
L 135.411195 -165.992627 
L 135.414609 -166.296299 
L 135.417011 -166.599972 
L 135.425968 -166.903644 
L 135.435092 -167.207317 
L 135.441234 -167.510989 
L 135.446642 -167.814661 
L 135.449887 -168.118334 
L 135.449677 -168.422006 
L 135.448148 -168.725679 
L 135.447973 -169.029351 
L 135.460343 -169.029351 
L 135.460343 -169.029351 
L 135.460167 -168.725679 
L 135.458639 -168.422006 
L 135.458428 -168.118334 
L 135.461673 -167.814661 
L 135.467082 -167.510989 
L 135.473224 -167.207317 
L 135.482348 -166.903644 
L 135.491304 -166.599972 
L 135.493706 -166.296299 
L 135.497121 -165.992627 
L 135.514274 -165.688955 
L 135.540576 -165.385282 
L 135.557266 -165.08161 
L 135.56064 -164.777937 
L 135.574523 -164.474265 
L 135.626702 -164.170593 
L 135.703233 -163.86692 
L 135.749904 -163.563248 
L 135.767117 -163.259576 
L 135.818431 -162.955903 
L 135.924421 -162.652231 
L 136.061963 -162.348558 
L 136.210528 -162.044886 
L 136.332965 -161.741214 
L 136.461283 -161.437541 
L 136.692953 -161.133869 
L 137.007177 -160.830196 
L 137.338762 -160.526524 
L 137.695289 -160.222852 
L 138.10184 -159.919179 
L 138.543957 -159.615507 
L 138.965268 -159.311834 
L 139.390684 -159.008162 
L 139.838713 -158.70449 
L 140.291893 -158.400817 
L 140.83383 -158.097145 
L 141.452643 -157.793473 
L 141.988011 -157.4898 
L 142.436764 -157.186128 
L 142.991753 -156.882455 
L 143.694055 -156.578783 
L 144.377229 -156.275111 
L 145.019361 -155.971438 
L 145.626084 -155.667766 
L 146.134795 -155.364093 
L 146.683092 -155.060421 
L 147.341658 -154.756749 
L 147.991298 -154.453076 
L 148.661011 -154.149404 
L 149.266617 -153.845731 
L 149.570255 -153.542059 
L 149.684244 -153.238387 
L 149.800451 -152.934714 
L 149.963483 -152.631042 
L 150.177119 -152.327369 
L 150.260128 -152.023697 
L 150.10787 -151.720025 
L 149.809636 -151.416352 
L 149.493442 -151.11268 
L 149.248646 -150.809008 
L 149.063239 -150.505335 
L 148.820884 -150.201663 
L 148.348041 -149.89799 
L 147.665777 -149.594318 
L 147.047554 -149.290646 
L 146.55742 -148.986973 
L 146.037792 -148.683301 
L 145.297047 -148.379628 
L 144.171329 -148.075956 
L 142.919003 -147.772284 
L 141.966154 -147.468611 
L 141.30382 -147.164939 
L 140.695166 -146.861266 
L 140.080691 -146.557594 
L 139.498056 -146.253922 
L 138.959373 -145.950249 
L 138.487163 -145.646577 
L 138.093842 -145.342905 
L 137.725187 -145.039232 
L 137.325391 -144.73556 
L 136.914113 -144.431887 
L 136.571261 -144.128215 
L 136.344846 -143.824543 
L 136.170082 -143.52087 
L 135.979918 -143.217198 
L 135.806783 -142.913525 
L 135.698282 -142.609853 
L 135.634195 -142.306181 
L 135.578463 -142.002508 
L 135.534456 -141.698836 
L 135.513124 -141.395163 
L 135.504748 -141.091491 
L 135.499702 -140.787819 
L 135.496612 -140.484146 
L 135.49013 -140.180474 
L 135.477381 -139.876802 
L 135.464972 -139.573129 
L 135.458853 -139.269457 
L 135.457274 -138.965784 
z
" style="stroke: #008000; stroke-opacity: 0.7"/>
    </defs>
    <g clip-path="url(#pe8466b28de)">
     <use xlink:href="#m62dc3b9999" x="0" y="432" style="fill: #008000; fill-opacity: 0.7; stroke: #008000; stroke-opacity: 0.7"/>
    </g>
   </g>
   <g id="PolyCollection_3">
    <defs>
     <path id="ma6a547488e" d="M 177.762539 -212.499962 
L 177.751321 -212.499962 
L 177.748869 -212.846372 
L 177.749605 -213.192782 
L 177.753128 -213.539192 
L 177.754681 -213.885602 
L 177.748924 -214.232012 
L 177.732582 -214.578422 
L 177.714168 -214.924832 
L 177.701483 -215.271242 
L 177.68281 -215.617652 
L 177.656732 -215.964062 
L 177.635325 -216.310471 
L 177.603452 -216.656881 
L 177.535245 -217.003291 
L 177.443456 -217.349701 
L 177.347274 -217.696111 
L 177.228651 -218.042521 
L 177.094925 -218.388931 
L 176.969971 -218.735341 
L 176.818363 -219.081751 
L 176.611384 -219.428161 
L 176.379636 -219.774571 
L 176.138878 -220.120981 
L 175.820732 -220.467391 
L 175.406868 -220.813801 
L 174.943286 -221.160211 
L 174.462769 -221.506621 
L 173.942001 -221.853031 
L 173.329747 -222.199441 
L 172.603101 -222.545851 
L 171.844179 -222.892261 
L 171.15523 -223.238671 
L 170.454765 -223.58508 
L 169.581339 -223.93149 
L 168.569885 -224.2779 
L 167.623481 -224.62431 
L 166.980251 -224.97072 
L 166.596516 -225.31713 
L 165.98795 -225.66354 
L 165.215538 -226.00995 
L 164.754359 -226.35636 
L 164.358893 -226.70277 
L 163.701962 -227.04918 
L 163.186559 -227.39559 
L 163.035913 -227.742 
L 162.967585 -228.08841 
L 162.950959 -228.43482 
L 163.155467 -228.78123 
L 163.516539 -229.12764 
L 163.858935 -229.47405 
L 164.240366 -229.82046 
L 164.677025 -230.16687 
L 165.096895 -230.51328 
L 165.643818 -230.85969 
L 166.439505 -231.206099 
L 167.392872 -231.552509 
L 168.296625 -231.898919 
L 168.985963 -232.245329 
L 169.534529 -232.591739 
L 170.206083 -232.938149 
L 171.002705 -233.284559 
L 171.681105 -233.630969 
L 172.173213 -233.977379 
L 172.599478 -234.323789 
L 173.083328 -234.670199 
L 173.629089 -235.016609 
L 174.193765 -235.363019 
L 174.742766 -235.709429 
L 175.242469 -236.055839 
L 175.620354 -236.402249 
L 175.896941 -236.748659 
L 176.157627 -237.095069 
L 176.439764 -237.441479 
L 176.7227 -237.787889 
L 176.935925 -238.134299 
L 177.082387 -238.480708 
L 177.207909 -238.827118 
L 177.321556 -239.173528 
L 177.411366 -239.519938 
L 177.47244 -239.866348 
L 177.531115 -240.212758 
L 177.579889 -240.559168 
L 177.595887 -240.905578 
L 177.601943 -241.251988 
L 177.63207 -241.598398 
L 177.669189 -241.944808 
L 177.680113 -242.291218 
L 177.67763 -242.637628 
L 177.683502 -242.984038 
L 177.694466 -243.330448 
L 177.707669 -243.676858 
L 177.724509 -244.023268 
L 177.741406 -244.369678 
L 177.750509 -244.716088 
L 177.750441 -245.062498 
L 177.745307 -245.408908 
L 177.743583 -245.755318 
L 177.748458 -246.101727 
L 177.751967 -246.448137 
L 177.753023 -246.794547 
L 177.760837 -246.794547 
L 177.760837 -246.794547 
L 177.761892 -246.448137 
L 177.765401 -246.101727 
L 177.770277 -245.755318 
L 177.768552 -245.408908 
L 177.763418 -245.062498 
L 177.76335 -244.716088 
L 177.772453 -244.369678 
L 177.78935 -244.023268 
L 177.80619 -243.676858 
L 177.819393 -243.330448 
L 177.830357 -242.984038 
L 177.83623 -242.637628 
L 177.833747 -242.291218 
L 177.84467 -241.944808 
L 177.881789 -241.598398 
L 177.911916 -241.251988 
L 177.917972 -240.905578 
L 177.93397 -240.559168 
L 177.982744 -240.212758 
L 178.041419 -239.866348 
L 178.102493 -239.519938 
L 178.192303 -239.173528 
L 178.30595 -238.827118 
L 178.431472 -238.480708 
L 178.577934 -238.134299 
L 178.791159 -237.787889 
L 179.074095 -237.441479 
L 179.356232 -237.095069 
L 179.616918 -236.748659 
L 179.893505 -236.402249 
L 180.271391 -236.055839 
L 180.771094 -235.709429 
L 181.320094 -235.363019 
L 181.88477 -235.016609 
L 182.430531 -234.670199 
L 182.914381 -234.323789 
L 183.340646 -233.977379 
L 183.832755 -233.630969 
L 184.511154 -233.284559 
L 185.307776 -232.938149 
L 185.979331 -232.591739 
L 186.527896 -232.245329 
L 187.217234 -231.898919 
L 188.120988 -231.552509 
L 189.074355 -231.206099 
L 189.870041 -230.85969 
L 190.416964 -230.51328 
L 190.836834 -230.16687 
L 191.273494 -229.82046 
L 191.654924 -229.47405 
L 191.997321 -229.12764 
L 192.358392 -228.78123 
L 192.5629 -228.43482 
L 192.546274 -228.08841 
L 192.477946 -227.742 
L 192.3273 -227.39559 
L 191.811897 -227.04918 
L 191.154967 -226.70277 
L 190.759501 -226.35636 
L 190.298322 -226.00995 
L 189.525909 -225.66354 
L 188.917343 -225.31713 
L 188.533608 -224.97072 
L 187.890378 -224.62431 
L 186.943975 -224.2779 
L 185.93252 -223.93149 
L 185.059094 -223.58508 
L 184.358629 -223.238671 
L 183.66968 -222.892261 
L 182.910759 -222.545851 
L 182.184113 -222.199441 
L 181.571858 -221.853031 
L 181.051091 -221.506621 
L 180.570573 -221.160211 
L 180.106991 -220.813801 
L 179.693127 -220.467391 
L 179.374981 -220.120981 
L 179.134223 -219.774571 
L 178.902475 -219.428161 
L 178.695496 -219.081751 
L 178.543888 -218.735341 
L 178.418934 -218.388931 
L 178.285208 -218.042521 
L 178.166585 -217.696111 
L 178.070403 -217.349701 
L 177.978614 -217.003291 
L 177.910407 -216.656881 
L 177.878534 -216.310471 
L 177.857127 -215.964062 
L 177.831049 -215.617652 
L 177.812376 -215.271242 
L 177.799692 -214.924832 
L 177.781278 -214.578422 
L 177.764935 -214.232012 
L 177.759179 -213.885602 
L 177.760731 -213.539192 
L 177.764255 -213.192782 
L 177.76499 -212.846372 
L 177.762539 -212.499962 
z
" style="stroke: #008000; stroke-opacity: 0.7"/>
    </defs>
    <g clip-path="url(#pe8466b28de)">
     <use xlink:href="#ma6a547488e" x="0" y="432" style="fill: #008000; fill-opacity: 0.7; stroke: #008000; stroke-opacity: 0.7"/>
    </g>
   </g>
   <g id="PolyCollection_4">
    <defs>
     <path id="m8497272e0e" d="M 220.062644 -272.650464 
L 220.056759 -272.650464 
L 220.051455 -273.001336 
L 220.041305 -273.352208 
L 220.032223 -273.703079 
L 220.025238 -274.053951 
L 220.014664 -274.404823 
L 220.002286 -274.755694 
L 219.979702 -275.106566 
L 219.939513 -275.457438 
L 219.894135 -275.808309 
L 219.847292 -276.159181 
L 219.804635 -276.510052 
L 219.738526 -276.860924 
L 219.637228 -277.211796 
L 219.542011 -277.562667 
L 219.431879 -277.913539 
L 219.243689 -278.264411 
L 218.981821 -278.615282 
L 218.673968 -278.966154 
L 218.291304 -279.317026 
L 217.852388 -279.667897 
L 217.405108 -280.018769 
L 216.998087 -280.369641 
L 216.573901 -280.720512 
L 216.054391 -281.071384 
L 215.475617 -281.422255 
L 214.909374 -281.773127 
L 214.350462 -282.123999 
L 213.621737 -282.47487 
L 212.664971 -282.825742 
L 211.654497 -283.176614 
L 210.743352 -283.527485 
L 210.007451 -283.878357 
L 209.389923 -284.229229 
L 208.587898 -284.5801 
L 207.642967 -284.930972 
L 206.934223 -285.281844 
L 206.651958 -285.632715 
L 206.477711 -285.983587 
L 206.036845 -286.334458 
L 205.546309 -286.68533 
L 205.282504 -287.036202 
L 205.253731 -287.387073 
L 205.468924 -287.737945 
L 205.941542 -288.088817 
L 206.589007 -288.439688 
L 207.244952 -288.79056 
L 207.818111 -289.141432 
L 208.281337 -289.492303 
L 208.819104 -289.843175 
L 209.671013 -290.194046 
L 210.891221 -290.544918 
L 212.113653 -290.89579 
L 212.956299 -291.246661 
L 213.569093 -291.597533 
L 214.147257 -291.948405 
L 214.691283 -292.299276 
L 215.290075 -292.650148 
L 215.827703 -293.00102 
L 216.219668 -293.351891 
L 216.648838 -293.702763 
L 217.123475 -294.053635 
L 217.529035 -294.404506 
L 217.847926 -294.755378 
L 218.136403 -295.106249 
L 218.447218 -295.457121 
L 218.735375 -295.807993 
L 218.92344 -296.158864 
L 219.05968 -296.509736 
L 219.204121 -296.860608 
L 219.360965 -297.211479 
L 219.49869 -297.562351 
L 219.567295 -297.913223 
L 219.600395 -298.264094 
L 219.685357 -298.614966 
L 219.804444 -298.965838 
L 219.890753 -299.316709 
L 219.93438 -299.667581 
L 219.9634 -300.018452 
L 219.989687 -300.369324 
L 220.005096 -300.720196 
L 220.018559 -301.071067 
L 220.035012 -301.421939 
L 220.047584 -301.772811 
L 220.055477 -302.123682 
L 220.05891 -302.474554 
L 220.059633 -302.825426 
L 220.059699 -303.176297 
L 220.059701 -303.527169 
L 220.059698 -303.87804 
L 220.059636 -304.228912 
L 220.05923 -304.579784 
L 220.058175 -304.930655 
L 220.057409 -305.281527 
L 220.058076 -305.632399 
L 220.059163 -305.98327 
L 220.059575 -306.334142 
L 220.059273 -306.685014 
L 220.058109 -307.035885 
L 220.057225 -307.386757 
L 220.062178 -307.386757 
L 220.062178 -307.386757 
L 220.061294 -307.035885 
L 220.06013 -306.685014 
L 220.059828 -306.334142 
L 220.06024 -305.98327 
L 220.061327 -305.632399 
L 220.061994 -305.281527 
L 220.061228 -304.930655 
L 220.060173 -304.579784 
L 220.059767 -304.228912 
L 220.059705 -303.87804 
L 220.059702 -303.527169 
L 220.059704 -303.176297 
L 220.05977 -302.825426 
L 220.060493 -302.474554 
L 220.063926 -302.123682 
L 220.071819 -301.772811 
L 220.084391 -301.421939 
L 220.100844 -301.071067 
L 220.114307 -300.720196 
L 220.129716 -300.369324 
L 220.156003 -300.018452 
L 220.185023 -299.667581 
L 220.22865 -299.316709 
L 220.314959 -298.965838 
L 220.434046 -298.614966 
L 220.519008 -298.264094 
L 220.552108 -297.913223 
L 220.620713 -297.562351 
L 220.758438 -297.211479 
L 220.915282 -296.860608 
L 221.059723 -296.509736 
L 221.195963 -296.158864 
L 221.384028 -295.807993 
L 221.672185 -295.457121 
L 221.983 -295.106249 
L 222.271477 -294.755378 
L 222.590368 -294.404506 
L 222.995928 -294.053635 
L 223.470565 -293.702763 
L 223.899735 -293.351891 
L 224.2917 -293.00102 
L 224.829328 -292.650148 
L 225.42812 -292.299276 
L 225.972146 -291.948405 
L 226.55031 -291.597533 
L 227.163104 -291.246661 
L 228.00575 -290.89579 
L 229.228182 -290.544918 
L 230.44839 -290.194046 
L 231.300299 -289.843175 
L 231.838066 -289.492303 
L 232.301292 -289.141432 
L 232.874451 -288.79056 
L 233.530396 -288.439688 
L 234.177861 -288.088817 
L 234.650479 -287.737945 
L 234.865672 -287.387073 
L 234.836899 -287.036202 
L 234.573094 -286.68533 
L 234.082558 -286.334458 
L 233.641692 -285.983587 
L 233.467445 -285.632715 
L 233.18518 -285.281844 
L 232.476436 -284.930972 
L 231.531505 -284.5801 
L 230.72948 -284.229229 
L 230.111952 -283.878357 
L 229.376051 -283.527485 
L 228.464906 -283.176614 
L 227.454432 -282.825742 
L 226.497666 -282.47487 
L 225.768941 -282.123999 
L 225.210029 -281.773127 
L 224.643786 -281.422255 
L 224.065012 -281.071384 
L 223.545502 -280.720512 
L 223.121316 -280.369641 
L 222.714295 -280.018769 
L 222.267015 -279.667897 
L 221.828099 -279.317026 
L 221.445435 -278.966154 
L 221.137582 -278.615282 
L 220.875714 -278.264411 
L 220.687524 -277.913539 
L 220.577392 -277.562667 
L 220.482175 -277.211796 
L 220.380877 -276.860924 
L 220.314768 -276.510052 
L 220.272111 -276.159181 
L 220.225268 -275.808309 
L 220.17989 -275.457438 
L 220.139701 -275.106566 
L 220.117117 -274.755694 
L 220.104739 -274.404823 
L 220.094165 -274.053951 
L 220.08718 -273.703079 
L 220.078098 -273.352208 
L 220.067948 -273.001336 
L 220.062644 -272.650464 
z
" style="stroke: #008000; stroke-opacity: 0.7"/>
    </defs>
    <g clip-path="url(#pe8466b28de)">
     <use xlink:href="#m8497272e0e" x="0" y="432" style="fill: #008000; fill-opacity: 0.7; stroke: #008000; stroke-opacity: 0.7"/>
    </g>
   </g>
   <g id="PolyCollection_5">
    <defs>
     <path id="m1a77256852" d="M 262.385143 -305.718244 
L 262.339804 -305.718244 
L 262.32948 -305.989329 
L 262.319014 -306.260414 
L 262.303113 -306.531499 
L 262.288577 -306.802584 
L 262.280108 -307.073669 
L 262.267501 -307.344754 
L 262.245409 -307.615839 
L 262.215278 -307.886924 
L 262.178526 -308.158009 
L 262.129953 -308.429094 
L 262.051222 -308.70018 
L 261.940347 -308.971265 
L 261.823748 -309.24235 
L 261.716505 -309.513435 
L 261.59376 -309.78452 
L 261.431776 -310.055605 
L 261.24794 -310.32669 
L 261.059033 -310.597775 
L 260.840098 -310.86886 
L 260.537043 -311.139945 
L 260.135986 -311.41103 
L 259.696919 -311.682116 
L 259.295634 -311.953201 
L 258.949283 -312.224286 
L 258.586077 -312.495371 
L 258.12808 -312.766456 
L 257.556803 -313.037541 
L 256.895082 -313.308626 
L 256.18431 -313.579711 
L 255.444427 -313.850796 
L 254.66795 -314.121881 
L 253.953384 -314.392966 
L 253.383948 -314.664051 
L 252.821401 -314.935137 
L 252.233499 -315.206222 
L 251.759624 -315.477307 
L 251.285182 -315.748392 
L 250.600597 -316.019477 
L 249.817187 -316.290562 
L 249.272549 -316.561647 
L 249.013879 -316.832732 
L 248.774295 -317.103817 
L 248.423996 -317.374902 
L 248.024582 -317.645987 
L 247.729804 -317.917073 
L 247.596146 -318.188158 
L 247.556503 -318.459243 
L 247.646522 -318.730328 
L 247.914594 -319.001413 
L 248.309879 -319.272498 
L 248.717386 -319.543583 
L 249.066584 -319.814668 
L 249.404836 -320.085753 
L 249.829349 -320.356838 
L 250.346015 -320.627923 
L 250.843894 -320.899008 
L 251.339451 -321.170094 
L 251.977364 -321.441179 
L 252.768891 -321.712264 
L 253.599503 -321.983349 
L 254.375478 -322.254434 
L 255.04718 -322.525519 
L 255.656818 -322.796604 
L 256.237359 -323.067689 
L 256.729357 -323.338774 
L 257.134103 -323.609859 
L 257.51638 -323.880944 
L 257.901859 -324.15203 
L 258.31756 -324.423115 
L 258.811156 -324.6942 
L 259.355834 -324.965285 
L 259.858091 -325.23637 
L 260.254673 -325.507455 
L 260.540597 -325.77854 
L 260.747808 -326.049625 
L 260.944844 -326.32071 
L 261.175496 -326.591795 
L 261.403265 -326.86288 
L 261.589842 -327.133965 
L 261.747013 -327.405051 
L 261.882876 -327.676136 
L 261.978373 -327.947221 
L 262.032077 -328.218306 
L 262.068829 -328.489391 
L 262.115013 -328.760476 
L 262.173874 -329.031561 
L 262.227961 -329.302646 
L 262.261441 -329.573731 
L 262.274494 -329.844816 
L 262.285596 -330.115901 
L 262.302028 -330.386987 
L 262.31594 -330.658072 
L 262.327097 -330.929157 
L 262.337292 -331.200242 
L 262.34581 -331.471327 
L 262.352753 -331.742412 
L 262.357523 -332.013497 
L 262.359818 -332.284582 
L 262.36072 -332.555667 
L 262.364226 -332.555667 
L 262.364226 -332.555667 
L 262.365128 -332.284582 
L 262.367424 -332.013497 
L 262.372193 -331.742412 
L 262.379136 -331.471327 
L 262.387654 -331.200242 
L 262.39785 -330.929157 
L 262.409007 -330.658072 
L 262.422919 -330.386987 
L 262.439351 -330.115901 
L 262.450453 -329.844816 
L 262.463505 -329.573731 
L 262.496986 -329.302646 
L 262.551072 -329.031561 
L 262.609934 -328.760476 
L 262.656118 -328.489391 
L 262.692869 -328.218306 
L 262.746573 -327.947221 
L 262.842071 -327.676136 
L 262.977934 -327.405051 
L 263.135104 -327.133965 
L 263.321681 -326.86288 
L 263.54945 -326.591795 
L 263.780103 -326.32071 
L 263.977139 -326.049625 
L 264.18435 -325.77854 
L 264.470273 -325.507455 
L 264.866855 -325.23637 
L 265.369113 -324.965285 
L 265.913791 -324.6942 
L 266.407387 -324.423115 
L 266.823087 -324.15203 
L 267.208566 -323.880944 
L 267.590843 -323.609859 
L 267.99559 -323.338774 
L 268.487588 -323.067689 
L 269.068128 -322.796604 
L 269.677767 -322.525519 
L 270.349469 -322.254434 
L 271.125443 -321.983349 
L 271.956056 -321.712264 
L 272.747582 -321.441179 
L 273.385496 -321.170094 
L 273.881053 -320.899008 
L 274.378932 -320.627923 
L 274.895598 -320.356838 
L 275.320111 -320.085753 
L 275.658363 -319.814668 
L 276.00756 -319.543583 
L 276.415068 -319.272498 
L 276.810352 -319.001413 
L 277.078425 -318.730328 
L 277.168443 -318.459243 
L 277.1288 -318.188158 
L 276.995142 -317.917073 
L 276.700365 -317.645987 
L 276.300951 -317.374902 
L 275.950652 -317.103817 
L 275.711068 -316.832732 
L 275.452398 -316.561647 
L 274.907759 -316.290562 
L 274.12435 -316.019477 
L 273.439765 -315.748392 
L 272.965322 -315.477307 
L 272.491448 -315.206222 
L 271.903546 -314.935137 
L 271.340999 -314.664051 
L 270.771563 -314.392966 
L 270.056996 -314.121881 
L 269.28052 -313.850796 
L 268.540637 -313.579711 
L 267.829864 -313.308626 
L 267.168143 -313.037541 
L 266.596866 -312.766456 
L 266.13887 -312.495371 
L 265.775664 -312.224286 
L 265.429313 -311.953201 
L 265.028027 -311.682116 
L 264.588961 -311.41103 
L 264.187903 -311.139945 
L 263.884849 -310.86886 
L 263.665913 -310.597775 
L 263.477007 -310.32669 
L 263.293171 -310.055605 
L 263.131187 -309.78452 
L 263.008442 -309.513435 
L 262.901199 -309.24235 
L 262.7846 -308.971265 
L 262.673725 -308.70018 
L 262.594994 -308.429094 
L 262.54642 -308.158009 
L 262.509669 -307.886924 
L 262.479537 -307.615839 
L 262.457446 -307.344754 
L 262.444839 -307.073669 
L 262.43637 -306.802584 
L 262.421834 -306.531499 
L 262.405933 -306.260414 
L 262.395467 -305.989329 
L 262.385143 -305.718244 
z
" style="stroke: #008000; stroke-opacity: 0.7"/>
    </defs>
    <g clip-path="url(#pe8466b28de)">
     <use xlink:href="#m1a77256852" x="0" y="432" style="fill: #008000; fill-opacity: 0.7; stroke: #008000; stroke-opacity: 0.7"/>
    </g>
   </g>
   <g id="PolyCollection_6">
    <defs>
     <path id="mfc49d5ed3d" d="M 304.679655 -337.219707 
L 304.650836 -337.219707 
L 304.651072 -337.493448 
L 304.65224 -337.767188 
L 304.648571 -338.040928 
L 304.643287 -338.314669 
L 304.637122 -338.588409 
L 304.626962 -338.862149 
L 304.608199 -339.13589 
L 304.586058 -339.40963 
L 304.567554 -339.68337 
L 304.541552 -339.95711 
L 304.516356 -340.230851 
L 304.501897 -340.504591 
L 304.456047 -340.778331 
L 304.35388 -341.052072 
L 304.218502 -341.325812 
L 304.078477 -341.599552 
L 303.932469 -341.873293 
L 303.762994 -342.147033 
L 303.531498 -342.420773 
L 303.211984 -342.694514 
L 302.873208 -342.968254 
L 302.546087 -343.241994 
L 302.18469 -343.515735 
L 301.717796 -343.789475 
L 301.123066 -344.063215 
L 300.505404 -344.336956 
L 299.949053 -344.610696 
L 299.381261 -344.884436 
L 298.76748 -345.158177 
L 298.066041 -345.431917 
L 297.227065 -345.705657 
L 296.263881 -345.979398 
L 295.325575 -346.253138 
L 294.576877 -346.526878 
L 293.937397 -346.800619 
L 293.296632 -347.074359 
L 292.711231 -347.348099 
L 292.181498 -347.62184 
L 291.62671 -347.89558 
L 291.019407 -348.16932 
L 290.537127 -348.443061 
L 290.430046 -348.716801 
L 290.471527 -348.990541 
L 290.322215 -349.264282 
L 290.137322 -349.538022 
L 289.975188 -349.811762 
L 289.859275 -350.085503 
L 290.182322 -350.359243 
L 290.79028 -350.632983 
L 291.192455 -350.906724 
L 291.46177 -351.180464 
L 292.065509 -351.454204 
L 292.99943 -351.727945 
L 293.815241 -352.001685 
L 294.404874 -352.275425 
L 295.018757 -352.549166 
L 295.798046 -352.822906 
L 296.634753 -353.096646 
L 297.421915 -353.370387 
L 298.189168 -353.644127 
L 298.92845 -353.917867 
L 299.656286 -354.191608 
L 300.396373 -354.465348 
L 301.070081 -354.739088 
L 301.571131 -355.012829 
L 301.893513 -355.286569 
L 302.1621 -355.560309 
L 302.473294 -355.83405 
L 302.804427 -356.10779 
L 303.104412 -356.38153 
L 303.421229 -356.655271 
L 303.735288 -356.929011 
L 303.947566 -357.202751 
L 304.064698 -357.476492 
L 304.160197 -357.750232 
L 304.248925 -358.023972 
L 304.3162 -358.297713 
L 304.3717 -358.571453 
L 304.418671 -358.845193 
L 304.467262 -359.118934 
L 304.528355 -359.392674 
L 304.578158 -359.666414 
L 304.606063 -359.940155 
L 304.622056 -360.213895 
L 304.632435 -360.487635 
L 304.634827 -360.761376 
L 304.632394 -361.035116 
L 304.638328 -361.308856 
L 304.650554 -361.582597 
L 304.653087 -361.856337 
L 304.644763 -362.130077 
L 304.641828 -362.403818 
L 304.651244 -362.677558 
L 304.661069 -362.951298 
L 304.664632 -363.225039 
L 304.665038 -363.498779 
L 304.664218 -363.772519 
L 304.662321 -364.04626 
L 304.661403 -364.32 
L 304.669088 -364.32 
L 304.669088 -364.32 
L 304.668169 -364.04626 
L 304.666272 -363.772519 
L 304.665452 -363.498779 
L 304.665859 -363.225039 
L 304.669422 -362.951298 
L 304.679247 -362.677558 
L 304.688662 -362.403818 
L 304.685728 -362.130077 
L 304.677403 -361.856337 
L 304.679936 -361.582597 
L 304.692162 -361.308856 
L 304.698097 -361.035116 
L 304.695664 -360.761376 
L 304.698056 -360.487635 
L 304.708435 -360.213895 
L 304.724428 -359.940155 
L 304.752332 -359.666414 
L 304.802136 -359.392674 
L 304.863228 -359.118934 
L 304.911819 -358.845193 
L 304.958791 -358.571453 
L 305.01429 -358.297713 
L 305.081565 -358.023972 
L 305.170294 -357.750232 
L 305.265792 -357.476492 
L 305.382924 -357.202751 
L 305.595202 -356.929011 
L 305.909261 -356.655271 
L 306.226078 -356.38153 
L 306.526063 -356.10779 
L 306.857197 -355.83405 
L 307.168391 -355.560309 
L 307.436977 -355.286569 
L 307.759359 -355.012829 
L 308.26041 -354.739088 
L 308.934118 -354.465348 
L 309.674204 -354.191608 
L 310.402041 -353.917867 
L 311.141322 -353.644127 
L 311.908575 -353.370387 
L 312.695737 -353.096646 
L 313.532444 -352.822906 
L 314.311733 -352.549166 
L 314.925616 -352.275425 
L 315.515249 -352.001685 
L 316.331061 -351.727945 
L 317.264982 -351.454204 
L 317.86872 -351.180464 
L 318.138036 -350.906724 
L 318.54021 -350.632983 
L 319.148168 -350.359243 
L 319.471215 -350.085503 
L 319.355302 -349.811762 
L 319.193168 -349.538022 
L 319.008276 -349.264282 
L 318.858963 -348.990541 
L 318.900445 -348.716801 
L 318.793363 -348.443061 
L 318.311083 -348.16932 
L 317.70378 -347.89558 
L 317.148992 -347.62184 
L 316.61926 -347.348099 
L 316.033859 -347.074359 
L 315.393093 -346.800619 
L 314.753613 -346.526878 
L 314.004916 -346.253138 
L 313.066609 -345.979398 
L 312.103425 -345.705657 
L 311.26445 -345.431917 
L 310.56301 -345.158177 
L 309.949229 -344.884436 
L 309.381437 -344.610696 
L 308.825086 -344.336956 
L 308.207425 -344.063215 
L 307.612695 -343.789475 
L 307.1458 -343.515735 
L 306.784403 -343.241994 
L 306.457282 -342.968254 
L 306.118507 -342.694514 
L 305.798993 -342.420773 
L 305.567496 -342.147033 
L 305.398021 -341.873293 
L 305.252013 -341.599552 
L 305.111989 -341.325812 
L 304.97661 -341.052072 
L 304.874444 -340.778331 
L 304.828593 -340.504591 
L 304.814134 -340.230851 
L 304.788939 -339.95711 
L 304.762936 -339.68337 
L 304.744433 -339.40963 
L 304.722291 -339.13589 
L 304.703528 -338.862149 
L 304.693368 -338.588409 
L 304.687204 -338.314669 
L 304.68192 -338.040928 
L 304.678251 -337.767188 
L 304.679419 -337.493448 
L 304.679655 -337.219707 
z
" style="stroke: #008000; stroke-opacity: 0.7"/>
    </defs>
    <g clip-path="url(#pe8466b28de)">
     <use xlink:href="#mfc49d5ed3d" x="0" y="432" style="fill: #008000; fill-opacity: 0.7; stroke: #008000; stroke-opacity: 0.7"/>
    </g>
   </g>
   <g id="PolyCollection_7">
    <defs>
     <path id="mfc1b6e1b0b" d="M 346.970124 -318.477192 
L 346.96591 -318.477192 
L 346.964644 -318.717027 
L 346.963229 -318.956862 
L 346.960223 -319.196697 
L 346.953355 -319.436532 
L 346.946727 -319.676367 
L 346.950773 -319.916202 
L 346.955084 -320.156037 
L 346.949286 -320.395872 
L 346.94074 -320.635707 
L 346.921597 -320.875542 
L 346.877742 -321.115377 
L 346.823759 -321.355212 
L 346.780399 -321.595047 
L 346.733448 -321.834882 
L 346.667932 -322.074717 
L 346.574696 -322.314552 
L 346.43932 -322.554387 
L 346.307377 -322.794222 
L 346.229579 -323.034057 
L 346.140238 -323.273892 
L 345.887251 -323.513727 
L 345.551916 -323.753562 
L 345.264379 -323.993397 
L 344.92619 -324.233232 
L 344.493312 -324.473067 
L 343.97891 -324.712902 
L 343.415418 -324.952737 
L 342.825614 -325.192572 
L 342.117563 -325.432407 
L 341.361799 -325.672242 
L 340.722857 -325.912077 
L 339.999887 -326.151912 
L 339.169489 -326.391747 
L 338.425509 -326.631582 
L 337.606121 -326.871417 
L 336.765829 -327.111252 
L 336.063801 -327.351087 
L 335.46538 -327.590922 
L 334.984254 -327.830757 
L 334.351257 -328.070592 
L 333.504103 -328.310427 
L 332.912325 -328.550262 
L 332.673747 -328.790097 
L 332.394331 -329.029932 
L 332.162047 -329.269767 
L 332.20425 -329.509602 
L 332.718218 -329.749437 
L 333.543532 -329.989272 
L 334.035813 -330.229107 
L 334.163877 -330.468942 
L 334.506563 -330.708777 
L 335.262649 -330.948612 
L 336.102264 -331.188447 
L 336.863678 -331.428282 
L 337.460082 -331.668117 
L 338.012466 -331.907952 
L 338.809641 -332.147787 
L 339.707863 -332.387622 
L 340.651598 -332.627457 
L 341.502727 -332.867292 
L 342.200123 -333.107127 
L 342.878434 -333.346962 
L 343.434023 -333.586797 
L 343.919408 -333.826632 
L 344.432049 -334.066467 
L 344.92259 -334.306302 
L 345.366742 -334.546137 
L 345.672137 -334.785972 
L 345.873965 -335.025807 
L 346.040574 -335.265642 
L 346.199987 -335.505476 
L 346.361601 -335.745311 
L 346.509387 -335.985146 
L 346.60823 -336.224981 
L 346.647805 -336.464816 
L 346.701464 -336.704651 
L 346.764971 -336.944486 
L 346.787494 -337.184321 
L 346.809086 -337.424156 
L 346.858151 -337.663991 
L 346.898691 -337.903826 
L 346.923065 -338.143661 
L 346.937656 -338.383496 
L 346.947031 -338.623331 
L 346.955121 -338.863166 
L 346.960967 -339.103001 
L 346.965031 -339.342836 
L 346.96642 -339.582671 
L 346.967101 -339.822506 
L 346.967363 -340.062341 
L 346.966328 -340.302176 
L 346.965481 -340.542011 
L 346.966506 -340.781846 
L 346.967664 -341.021681 
L 346.967983 -341.261516 
L 346.967979 -341.501351 
L 346.967628 -341.741186 
L 346.966429 -341.981021 
L 346.965478 -342.220856 
L 346.970556 -342.220856 
L 346.970556 -342.220856 
L 346.969605 -341.981021 
L 346.968406 -341.741186 
L 346.968056 -341.501351 
L 346.968051 -341.261516 
L 346.96837 -341.021681 
L 346.969528 -340.781846 
L 346.970553 -340.542011 
L 346.969706 -340.302176 
L 346.968671 -340.062341 
L 346.968933 -339.822506 
L 346.969614 -339.582671 
L 346.971003 -339.342836 
L 346.975067 -339.103001 
L 346.980913 -338.863166 
L 346.989004 -338.623331 
L 346.998378 -338.383496 
L 347.012969 -338.143661 
L 347.037343 -337.903826 
L 347.077883 -337.663991 
L 347.126948 -337.424156 
L 347.14854 -337.184321 
L 347.171063 -336.944486 
L 347.23457 -336.704651 
L 347.288229 -336.464816 
L 347.327804 -336.224981 
L 347.426647 -335.985146 
L 347.574433 -335.745311 
L 347.736048 -335.505476 
L 347.89546 -335.265642 
L 348.062069 -335.025807 
L 348.263897 -334.785972 
L 348.569292 -334.546137 
L 349.013444 -334.306302 
L 349.503985 -334.066467 
L 350.016626 -333.826632 
L 350.502011 -333.586797 
L 351.0576 -333.346962 
L 351.735911 -333.107127 
L 352.433307 -332.867292 
L 353.284437 -332.627457 
L 354.228171 -332.387622 
L 355.126393 -332.147787 
L 355.923568 -331.907952 
L 356.475952 -331.668117 
L 357.072356 -331.428282 
L 357.83377 -331.188447 
L 358.673385 -330.948612 
L 359.429472 -330.708777 
L 359.772157 -330.468942 
L 359.900221 -330.229107 
L 360.392502 -329.989272 
L 361.217816 -329.749437 
L 361.731784 -329.509602 
L 361.773987 -329.269767 
L 361.541703 -329.029932 
L 361.262287 -328.790097 
L 361.023709 -328.550262 
L 360.431931 -328.310427 
L 359.584777 -328.070592 
L 358.95178 -327.830757 
L 358.470655 -327.590922 
L 357.872233 -327.351087 
L 357.170205 -327.111252 
L 356.329914 -326.871417 
L 355.510525 -326.631582 
L 354.766546 -326.391747 
L 353.936147 -326.151912 
L 353.213177 -325.912077 
L 352.574236 -325.672242 
L 351.818471 -325.432407 
L 351.11042 -325.192572 
L 350.520616 -324.952737 
L 349.957124 -324.712902 
L 349.442722 -324.473067 
L 349.009844 -324.233232 
L 348.671655 -323.993397 
L 348.384118 -323.753562 
L 348.048783 -323.513727 
L 347.795796 -323.273892 
L 347.706455 -323.034057 
L 347.628657 -322.794222 
L 347.496714 -322.554387 
L 347.361338 -322.314552 
L 347.268102 -322.074717 
L 347.202586 -321.834882 
L 347.155635 -321.595047 
L 347.112275 -321.355212 
L 347.058292 -321.115377 
L 347.014437 -320.875542 
L 346.995294 -320.635707 
L 346.986748 -320.395872 
L 346.98095 -320.156037 
L 346.985261 -319.916202 
L 346.989308 -319.676367 
L 346.982679 -319.436532 
L 346.975811 -319.196697 
L 346.972805 -318.956862 
L 346.97139 -318.717027 
L 346.970124 -318.477192 
z
" style="stroke: #008000; stroke-opacity: 0.7"/>
    </defs>
    <g clip-path="url(#pe8466b28de)">
     <use xlink:href="#mfc1b6e1b0b" x="0" y="432" style="fill: #008000; fill-opacity: 0.7; stroke: #008000; stroke-opacity: 0.7"/>
    </g>
   </g>
   <g id="PolyCollection_8">
    <defs>
     <path id="m1d9682f689" d="M 389.27789 -294.910567 
L 389.263688 -294.910567 
L 389.261913 -295.105102 
L 389.264572 -295.299637 
L 389.268136 -295.494171 
L 389.268028 -295.688706 
L 389.26569 -295.883241 
L 389.264907 -296.077776 
L 389.261121 -296.272311 
L 389.245505 -296.466846 
L 389.219524 -296.661381 
L 389.194263 -296.855916 
L 389.172313 -297.05045 
L 389.141914 -297.244985 
L 389.087372 -297.43952 
L 389.014181 -297.634055 
L 388.958691 -297.82859 
L 388.930501 -298.023125 
L 388.908303 -298.21766 
L 388.858458 -298.412195 
L 388.735786 -298.60673 
L 388.558459 -298.801264 
L 388.364271 -298.995799 
L 388.144737 -299.190334 
L 387.883278 -299.384869 
L 387.614404 -299.579404 
L 387.358278 -299.773939 
L 386.983525 -299.968474 
L 386.484831 -300.163009 
L 385.944592 -300.357543 
L 385.326406 -300.552078 
L 384.563165 -300.746613 
L 383.660075 -300.941148 
L 382.839032 -301.135683 
L 382.185419 -301.330218 
L 381.561103 -301.524753 
L 380.955754 -301.719288 
L 380.352339 -301.913822 
L 379.626749 -302.108357 
L 378.766309 -302.302892 
L 377.892619 -302.497427 
L 377.165429 -302.691962 
L 376.510379 -302.886497 
L 375.925589 -303.081032 
L 375.649604 -303.275567 
L 375.379108 -303.470101 
L 374.923469 -303.664636 
L 374.555636 -303.859171 
L 374.464819 -304.053706 
L 374.687584 -304.248241 
L 374.839264 -304.442776 
L 374.845446 -304.637311 
L 375.050114 -304.831846 
L 375.525296 -305.02638 
L 376.2214 -305.220915 
L 377.04101 -305.41545 
L 377.687815 -305.609985 
L 378.127795 -305.80452 
L 378.622498 -305.999055 
L 379.18868 -306.19359 
L 379.779418 -306.388125 
L 380.469736 -306.582659 
L 381.303954 -306.777194 
L 382.15268 -306.971729 
L 382.971495 -307.166264 
L 383.761065 -307.360799 
L 384.441362 -307.555334 
L 385.130566 -307.749869 
L 385.850815 -307.944404 
L 386.447884 -308.138938 
L 386.873073 -308.333473 
L 387.190498 -308.528008 
L 387.510198 -308.722543 
L 387.824808 -308.917078 
L 388.066382 -309.111613 
L 388.263977 -309.306148 
L 388.468027 -309.500683 
L 388.662791 -309.695218 
L 388.782308 -309.889752 
L 388.85339 -310.084287 
L 388.929866 -310.278822 
L 388.9956 -310.473357 
L 389.049241 -310.667892 
L 389.106705 -310.862427 
L 389.158522 -311.056962 
L 389.186473 -311.251497 
L 389.199842 -311.446031 
L 389.21274 -311.640566 
L 389.225972 -311.835101 
L 389.240213 -312.029636 
L 389.253708 -312.224171 
L 389.260658 -312.418706 
L 389.261035 -312.613241 
L 389.259402 -312.807776 
L 389.257873 -313.00231 
L 389.25893 -313.196845 
L 389.263092 -313.39138 
L 389.267505 -313.585915 
L 389.26884 -313.78045 
L 389.267691 -313.974985 
L 389.267291 -314.16952 
L 389.274287 -314.16952 
L 389.274287 -314.16952 
L 389.273886 -313.974985 
L 389.272738 -313.78045 
L 389.274073 -313.585915 
L 389.278486 -313.39138 
L 389.282648 -313.196845 
L 389.283705 -313.00231 
L 389.282176 -312.807776 
L 389.280543 -312.613241 
L 389.28092 -312.418706 
L 389.287869 -312.224171 
L 389.301365 -312.029636 
L 389.315606 -311.835101 
L 389.328838 -311.640566 
L 389.341735 -311.446031 
L 389.355105 -311.251497 
L 389.383056 -311.056962 
L 389.434873 -310.862427 
L 389.492337 -310.667892 
L 389.545978 -310.473357 
L 389.611712 -310.278822 
L 389.688188 -310.084287 
L 389.75927 -309.889752 
L 389.878787 -309.695218 
L 390.07355 -309.500683 
L 390.2776 -309.306148 
L 390.475196 -309.111613 
L 390.71677 -308.917078 
L 391.03138 -308.722543 
L 391.35108 -308.528008 
L 391.668505 -308.333473 
L 392.093694 -308.138938 
L 392.690763 -307.944404 
L 393.411011 -307.749869 
L 394.100215 -307.555334 
L 394.780513 -307.360799 
L 395.570083 -307.166264 
L 396.388898 -306.971729 
L 397.237624 -306.777194 
L 398.071842 -306.582659 
L 398.76216 -306.388125 
L 399.352898 -306.19359 
L 399.919079 -305.999055 
L 400.413783 -305.80452 
L 400.853763 -305.609985 
L 401.500567 -305.41545 
L 402.320178 -305.220915 
L 403.016281 -305.02638 
L 403.491464 -304.831846 
L 403.696132 -304.637311 
L 403.702314 -304.442776 
L 403.853994 -304.248241 
L 404.076759 -304.053706 
L 403.985942 -303.859171 
L 403.618108 -303.664636 
L 403.162469 -303.470101 
L 402.891973 -303.275567 
L 402.615989 -303.081032 
L 402.031198 -302.886497 
L 401.376149 -302.691962 
L 400.648959 -302.497427 
L 399.775269 -302.302892 
L 398.914829 -302.108357 
L 398.189239 -301.913822 
L 397.585824 -301.719288 
L 396.980475 -301.524753 
L 396.356159 -301.330218 
L 395.702546 -301.135683 
L 394.881503 -300.941148 
L 393.978413 -300.746613 
L 393.215172 -300.552078 
L 392.596986 -300.357543 
L 392.056747 -300.163009 
L 391.558053 -299.968474 
L 391.1833 -299.773939 
L 390.927174 -299.579404 
L 390.6583 -299.384869 
L 390.396841 -299.190334 
L 390.177306 -298.995799 
L 389.983119 -298.801264 
L 389.805792 -298.60673 
L 389.68312 -298.412195 
L 389.633275 -298.21766 
L 389.611077 -298.023125 
L 389.582887 -297.82859 
L 389.527397 -297.634055 
L 389.454206 -297.43952 
L 389.399663 -297.244985 
L 389.369265 -297.05045 
L 389.347315 -296.855916 
L 389.322054 -296.661381 
L 389.296072 -296.466846 
L 389.280457 -296.272311 
L 389.276671 -296.077776 
L 389.275888 -295.883241 
L 389.27355 -295.688706 
L 389.273441 -295.494171 
L 389.277006 -295.299637 
L 389.279665 -295.105102 
L 389.27789 -294.910567 
z
" style="stroke: #008000; stroke-opacity: 0.7"/>
    </defs>
    <g clip-path="url(#pe8466b28de)">
     <use xlink:href="#m1d9682f689" x="0" y="432" style="fill: #008000; fill-opacity: 0.7; stroke: #008000; stroke-opacity: 0.7"/>
    </g>
   </g>
   <g id="PolyCollection_9">
    <defs>
     <path id="m3c88610421" d="M 431.578263 -249.534157 
L 431.568858 -249.534157 
L 431.568125 -249.683852 
L 431.567952 -249.833546 
L 431.566212 -249.98324 
L 431.563733 -250.132934 
L 431.56113 -250.282628 
L 431.556755 -250.432323 
L 431.550348 -250.582017 
L 431.538695 -250.731711 
L 431.519832 -250.881405 
L 431.492088 -251.031099 
L 431.458097 -251.180794 
L 431.43368 -251.330488 
L 431.421047 -251.480182 
L 431.389509 -251.629876 
L 431.328956 -251.77957 
L 431.268055 -251.929265 
L 431.212867 -252.078959 
L 431.144456 -252.228653 
L 431.037703 -252.378347 
L 430.874693 -252.528041 
L 430.68646 -252.677736 
L 430.494662 -252.82743 
L 430.251088 -252.977124 
L 429.920321 -253.126818 
L 429.55029 -253.276512 
L 429.187023 -253.426207 
L 428.790384 -253.575901 
L 428.302095 -253.725595 
L 427.727469 -253.875289 
L 427.109906 -254.024983 
L 426.44333 -254.174678 
L 425.718023 -254.324372 
L 425.045693 -254.474066 
L 424.536687 -254.62376 
L 424.0451 -254.773454 
L 423.294345 -254.923149 
L 422.303215 -255.072843 
L 421.386701 -255.222537 
L 420.711397 -255.372231 
L 420.224217 -255.521925 
L 419.835264 -255.67162 
L 419.335811 -255.821314 
L 418.61182 -255.971008 
L 417.85202 -256.120702 
L 417.168007 -256.270396 
L 416.767591 -256.420091 
L 416.783584 -256.569785 
L 416.879056 -256.719479 
L 416.866679 -256.869173 
L 416.887216 -257.018867 
L 417.07025 -257.168562 
L 417.420644 -257.318256 
L 417.779221 -257.46795 
L 418.083877 -257.617644 
L 418.545637 -257.767338 
L 419.335754 -257.917033 
L 420.32711 -258.066727 
L 421.21658 -258.216421 
L 421.799287 -258.366115 
L 422.273535 -258.515809 
L 422.968034 -258.665504 
L 423.827617 -258.815198 
L 424.636898 -258.964892 
L 425.394397 -259.114586 
L 426.109801 -259.26428 
L 426.693082 -259.413975 
L 427.146179 -259.563669 
L 427.557475 -259.713363 
L 427.928172 -259.863057 
L 428.295919 -260.012751 
L 428.732282 -260.162446 
L 429.163463 -260.31214 
L 429.492781 -260.461834 
L 429.736652 -260.611528 
L 429.964822 -260.761222 
L 430.210534 -260.910917 
L 430.433435 -261.060611 
L 430.616651 -261.210305 
L 430.769938 -261.359999 
L 430.884457 -261.509693 
L 430.984402 -261.659388 
L 431.086971 -261.809082 
L 431.179809 -261.958776 
L 431.257798 -262.10847 
L 431.325753 -262.258164 
L 431.390825 -262.407859 
L 431.44386 -262.557553 
L 431.469633 -262.707247 
L 431.489698 -262.856941 
L 431.524569 -263.006635 
L 431.552314 -263.156329 
L 431.562076 -263.306024 
L 431.562818 -263.455718 
L 431.558938 -263.605412 
L 431.556955 -263.755106 
L 431.561757 -263.9048 
L 431.566012 -264.054495 
L 431.566323 -264.204189 
L 431.567672 -264.353883 
L 431.579449 -264.353883 
L 431.579449 -264.353883 
L 431.580799 -264.204189 
L 431.58111 -264.054495 
L 431.585364 -263.9048 
L 431.590166 -263.755106 
L 431.588184 -263.605412 
L 431.584304 -263.455718 
L 431.585046 -263.306024 
L 431.594807 -263.156329 
L 431.622552 -263.006635 
L 431.657423 -262.856941 
L 431.677488 -262.707247 
L 431.703261 -262.557553 
L 431.756297 -262.407859 
L 431.821368 -262.258164 
L 431.889323 -262.10847 
L 431.967313 -261.958776 
L 432.06015 -261.809082 
L 432.162719 -261.659388 
L 432.262665 -261.509693 
L 432.377183 -261.359999 
L 432.53047 -261.210305 
L 432.713686 -261.060611 
L 432.936588 -260.910917 
L 433.182299 -260.761222 
L 433.410469 -260.611528 
L 433.654341 -260.461834 
L 433.983659 -260.31214 
L 434.414839 -260.162446 
L 434.851203 -260.012751 
L 435.218949 -259.863057 
L 435.589647 -259.713363 
L 436.000943 -259.563669 
L 436.45404 -259.413975 
L 437.037321 -259.26428 
L 437.752725 -259.114586 
L 438.510224 -258.964892 
L 439.319505 -258.815198 
L 440.179088 -258.665504 
L 440.873587 -258.515809 
L 441.347835 -258.366115 
L 441.930541 -258.216421 
L 442.820012 -258.066727 
L 443.811367 -257.917033 
L 444.601484 -257.767338 
L 445.063245 -257.617644 
L 445.3679 -257.46795 
L 445.726478 -257.318256 
L 446.076871 -257.168562 
L 446.259906 -257.018867 
L 446.280442 -256.869173 
L 446.268066 -256.719479 
L 446.363537 -256.569785 
L 446.379531 -256.420091 
L 445.979114 -256.270396 
L 445.295102 -256.120702 
L 444.535302 -255.971008 
L 443.81131 -255.821314 
L 443.311858 -255.67162 
L 442.922904 -255.521925 
L 442.435725 -255.372231 
L 441.760421 -255.222537 
L 440.843906 -255.072843 
L 439.852777 -254.923149 
L 439.102021 -254.773454 
L 438.610435 -254.62376 
L 438.101428 -254.474066 
L 437.429099 -254.324372 
L 436.703792 -254.174678 
L 436.037215 -254.024983 
L 435.419653 -253.875289 
L 434.845027 -253.725595 
L 434.356738 -253.575901 
L 433.960099 -253.426207 
L 433.596831 -253.276512 
L 433.226801 -253.126818 
L 432.896033 -252.977124 
L 432.652459 -252.82743 
L 432.460661 -252.677736 
L 432.272429 -252.528041 
L 432.109418 -252.378347 
L 432.002666 -252.228653 
L 431.934255 -252.078959 
L 431.879066 -251.929265 
L 431.818165 -251.77957 
L 431.757612 -251.629876 
L 431.726075 -251.480182 
L 431.713442 -251.330488 
L 431.689025 -251.180794 
L 431.655034 -251.031099 
L 431.627289 -250.881405 
L 431.608427 -250.731711 
L 431.596774 -250.582017 
L 431.590366 -250.432323 
L 431.585992 -250.282628 
L 431.583388 -250.132934 
L 431.580909 -249.98324 
L 431.57917 -249.833546 
L 431.578996 -249.683852 
L 431.578263 -249.534157 
z
" style="stroke: #008000; stroke-opacity: 0.7"/>
    </defs>
    <g clip-path="url(#pe8466b28de)">
     <use xlink:href="#m3c88610421" x="0" y="432" style="fill: #008000; fill-opacity: 0.7; stroke: #008000; stroke-opacity: 0.7"/>
    </g>
   </g>
   <g id="PolyCollection_10">
    <defs>
     <path id="m274d430eb5" d="M 473.881457 -134.541796 
L 473.871209 -134.541796 
L 473.870128 -134.612954 
L 473.871738 -134.684113 
L 473.872254 -134.755271 
L 473.872148 -134.82643 
L 473.872462 -134.897588 
L 473.870686 -134.968747 
L 473.868798 -135.039905 
L 473.869929 -135.111064 
L 473.871639 -135.182222 
L 473.86867 -135.253381 
L 473.857335 -135.324539 
L 473.843022 -135.395698 
L 473.831485 -135.466856 
L 473.812931 -135.538014 
L 473.785402 -135.609173 
L 473.763167 -135.680331 
L 473.748202 -135.75149 
L 473.72569 -135.822648 
L 473.681619 -135.893807 
L 473.622607 -135.964965 
L 473.542572 -136.036124 
L 473.438148 -136.107282 
L 473.33434 -136.178441 
L 473.193632 -136.249599 
L 472.956205 -136.320758 
L 472.685099 -136.391916 
L 472.464816 -136.463075 
L 472.212209 -136.534233 
L 471.778745 -136.605391 
L 471.222604 -136.67655 
L 470.738613 -136.747708 
L 470.334594 -136.818867 
L 469.82657 -136.890025 
L 469.180866 -136.961184 
L 468.472166 -137.032342 
L 467.577354 -137.103501 
L 466.586293 -137.174659 
L 465.775581 -137.245818 
L 465.215421 -137.316976 
L 464.714198 -137.388135 
L 464.187716 -137.459293 
L 463.785311 -137.530451 
L 463.347155 -137.60161 
L 462.696839 -137.672768 
L 462.062443 -137.743927 
L 461.671921 -137.815085 
L 461.391956 -137.886244 
L 461.106645 -137.957402 
L 460.70507 -138.028561 
L 460.098237 -138.099719 
L 459.517533 -138.170878 
L 459.191778 -138.242036 
L 459.089382 -138.313195 
L 459.070362 -138.384353 
L 459.22239 -138.455511 
L 459.73191 -138.52667 
L 460.429255 -138.597828 
L 461.098828 -138.668987 
L 461.68368 -138.740145 
L 462.05817 -138.811304 
L 462.382541 -138.882462 
L 463.009495 -138.953621 
L 464.027867 -139.024779 
L 465.174361 -139.095938 
L 466.112478 -139.167096 
L 466.81309 -139.238255 
L 467.470297 -139.309413 
L 468.177477 -139.380572 
L 468.842736 -139.45173 
L 469.368331 -139.522888 
L 469.84883 -139.594047 
L 470.358602 -139.665205 
L 470.843313 -139.736364 
L 471.322698 -139.807522 
L 471.75289 -139.878681 
L 472.079739 -139.949839 
L 472.368503 -140.020998 
L 472.661011 -140.092156 
L 472.887934 -140.163315 
L 473.031305 -140.234473 
L 473.167863 -140.305632 
L 473.317312 -140.37679 
L 473.440159 -140.447948 
L 473.541165 -140.519107 
L 473.63113 -140.590265 
L 473.684555 -140.661424 
L 473.712301 -140.732582 
L 473.741788 -140.803741 
L 473.773707 -140.874899 
L 473.805426 -140.946058 
L 473.828149 -141.017216 
L 473.837639 -141.088375 
L 473.839857 -141.159533 
L 473.840401 -141.230692 
L 473.847567 -141.30185 
L 473.859083 -141.373009 
L 473.866179 -141.444167 
L 473.868458 -141.515325 
L 473.87085 -141.586484 
L 473.881815 -141.586484 
L 473.881815 -141.586484 
L 473.884207 -141.515325 
L 473.886486 -141.444167 
L 473.893582 -141.373009 
L 473.905098 -141.30185 
L 473.912264 -141.230692 
L 473.912808 -141.159533 
L 473.915026 -141.088375 
L 473.924516 -141.017216 
L 473.94724 -140.946058 
L 473.978959 -140.874899 
L 474.010877 -140.803741 
L 474.040364 -140.732582 
L 474.06811 -140.661424 
L 474.121535 -140.590265 
L 474.211501 -140.519107 
L 474.312506 -140.447948 
L 474.435354 -140.37679 
L 474.584802 -140.305632 
L 474.72136 -140.234473 
L 474.864731 -140.163315 
L 475.091654 -140.092156 
L 475.384163 -140.020998 
L 475.672927 -139.949839 
L 475.999775 -139.878681 
L 476.429967 -139.807522 
L 476.909352 -139.736364 
L 477.394063 -139.665205 
L 477.903835 -139.594047 
L 478.384334 -139.522888 
L 478.909929 -139.45173 
L 479.575188 -139.380572 
L 480.282368 -139.309413 
L 480.939576 -139.238255 
L 481.640188 -139.167096 
L 482.578304 -139.095938 
L 483.724799 -139.024779 
L 484.74317 -138.953621 
L 485.370124 -138.882462 
L 485.694495 -138.811304 
L 486.068985 -138.740145 
L 486.653837 -138.668987 
L 487.323411 -138.597828 
L 488.020756 -138.52667 
L 488.530275 -138.455511 
L 488.682303 -138.384353 
L 488.663283 -138.313195 
L 488.560888 -138.242036 
L 488.235132 -138.170878 
L 487.654428 -138.099719 
L 487.047595 -138.028561 
L 486.646021 -137.957402 
L 486.360709 -137.886244 
L 486.080744 -137.815085 
L 485.690222 -137.743927 
L 485.055826 -137.672768 
L 484.40551 -137.60161 
L 483.967354 -137.530451 
L 483.564949 -137.459293 
L 483.038467 -137.388135 
L 482.537244 -137.316976 
L 481.977084 -137.245818 
L 481.166372 -137.174659 
L 480.175311 -137.103501 
L 479.280499 -137.032342 
L 478.571799 -136.961184 
L 477.926095 -136.890025 
L 477.418071 -136.818867 
L 477.014052 -136.747708 
L 476.530062 -136.67655 
L 475.97392 -136.605391 
L 475.540456 -136.534233 
L 475.287849 -136.463075 
L 475.067567 -136.391916 
L 474.796461 -136.320758 
L 474.559033 -136.249599 
L 474.418325 -136.178441 
L 474.314518 -136.107282 
L 474.210094 -136.036124 
L 474.130058 -135.964965 
L 474.071046 -135.893807 
L 474.026975 -135.822648 
L 474.004463 -135.75149 
L 473.989498 -135.680331 
L 473.967264 -135.609173 
L 473.939734 -135.538014 
L 473.92118 -135.466856 
L 473.909643 -135.395698 
L 473.89533 -135.324539 
L 473.883995 -135.253381 
L 473.881026 -135.182222 
L 473.882736 -135.111064 
L 473.883868 -135.039905 
L 473.881979 -134.968747 
L 473.880203 -134.897588 
L 473.880518 -134.82643 
L 473.880411 -134.755271 
L 473.880927 -134.684113 
L 473.882537 -134.612954 
L 473.881457 -134.541796 
z
" style="stroke: #008000; stroke-opacity: 0.7"/>
    </defs>
    <g clip-path="url(#pe8466b28de)">
     <use xlink:href="#m274d430eb5" x="0" y="432" style="fill: #008000; fill-opacity: 0.7; stroke: #008000; stroke-opacity: 0.7"/>
    </g>
   </g>
   <g id="matplotlib.axis_1">
    <g id="xtick_1">
     <g id="line2d_2">
      <path d="M 93.151386 384.48 
L 93.151386 51.84 
" clip-path="url(#pe8466b28de)" style="fill: none; stroke-dasharray: 1.2,1.98; stroke-dashoffset: 0; stroke: #eeeeee; stroke-width: 1.2"/>
     </g>
     <g id="line2d_3">
      <defs>
       <path id="m2dc21fbba1" d="M 0 0 
L 0 3.5 
" style="stroke: #000000; stroke-width: 0.8"/>
      </defs>
      <g>
       <use xlink:href="#m2dc21fbba1" x="93.151386" y="384.48" style="stroke: #000000; stroke-width: 0.8"/>
      </g>
     </g>
     <g id="text_1">
      <!-- 1 -->
      <g transform="translate(89.970136 399.078438) scale(0.1 -0.1)">
       <defs>
        <path id="DejaVuSans-31" d="M 794 531 
L 1825 531 
L 1825 4091 
L 703 3866 
L 703 4441 
L 1819 4666 
L 2450 4666 
L 2450 531 
L 3481 531 
L 3481 0 
L 794 0 
L 794 531 
z
" transform="scale(0.015625)"/>
       </defs>
       <use xlink:href="#DejaVuSans-31"/>
      </g>
     </g>
    </g>
    <g id="xtick_2">
     <g id="line2d_4">
      <path d="M 135.454158 384.48 
L 135.454158 51.84 
" clip-path="url(#pe8466b28de)" style="fill: none; stroke-dasharray: 1.2,1.98; stroke-dashoffset: 0; stroke: #eeeeee; stroke-width: 1.2"/>
     </g>
     <g id="line2d_5">
      <g>
       <use xlink:href="#m2dc21fbba1" x="135.454158" y="384.48" style="stroke: #000000; stroke-width: 0.8"/>
      </g>
     </g>
     <g id="text_2">
      <!-- 2 -->
      <g transform="translate(132.272908 399.078438) scale(0.1 -0.1)">
       <defs>
        <path id="DejaVuSans-32" d="M 1228 531 
L 3431 531 
L 3431 0 
L 469 0 
L 469 531 
Q 828 903 1448 1529 
Q 2069 2156 2228 2338 
Q 2531 2678 2651 2914 
Q 2772 3150 2772 3378 
Q 2772 3750 2511 3984 
Q 2250 4219 1831 4219 
Q 1534 4219 1204 4116 
Q 875 4013 500 3803 
L 500 4441 
Q 881 4594 1212 4672 
Q 1544 4750 1819 4750 
Q 2544 4750 2975 4387 
Q 3406 4025 3406 3419 
Q 3406 3131 3298 2873 
Q 3191 2616 2906 2266 
Q 2828 2175 2409 1742 
Q 1991 1309 1228 531 
z
" transform="scale(0.015625)"/>
       </defs>
       <use xlink:href="#DejaVuSans-32"/>
      </g>
     </g>
    </g>
    <g id="xtick_3">
     <g id="line2d_6">
      <path d="M 177.75693 384.48 
L 177.75693 51.84 
" clip-path="url(#pe8466b28de)" style="fill: none; stroke-dasharray: 1.2,1.98; stroke-dashoffset: 0; stroke: #eeeeee; stroke-width: 1.2"/>
     </g>
     <g id="line2d_7">
      <g>
       <use xlink:href="#m2dc21fbba1" x="177.75693" y="384.48" style="stroke: #000000; stroke-width: 0.8"/>
      </g>
     </g>
     <g id="text_3">
      <!-- 3 -->
      <g transform="translate(174.57568 399.078438) scale(0.1 -0.1)">
       <defs>
        <path id="DejaVuSans-33" d="M 2597 2516 
Q 3050 2419 3304 2112 
Q 3559 1806 3559 1356 
Q 3559 666 3084 287 
Q 2609 -91 1734 -91 
Q 1441 -91 1130 -33 
Q 819 25 488 141 
L 488 750 
Q 750 597 1062 519 
Q 1375 441 1716 441 
Q 2309 441 2620 675 
Q 2931 909 2931 1356 
Q 2931 1769 2642 2001 
Q 2353 2234 1838 2234 
L 1294 2234 
L 1294 2753 
L 1863 2753 
Q 2328 2753 2575 2939 
Q 2822 3125 2822 3475 
Q 2822 3834 2567 4026 
Q 2313 4219 1838 4219 
Q 1578 4219 1281 4162 
Q 984 4106 628 3988 
L 628 4550 
Q 988 4650 1302 4700 
Q 1616 4750 1894 4750 
Q 2613 4750 3031 4423 
Q 3450 4097 3450 3541 
Q 3450 3153 3228 2886 
Q 3006 2619 2597 2516 
z
" transform="scale(0.015625)"/>
       </defs>
       <use xlink:href="#DejaVuSans-33"/>
      </g>
     </g>
    </g>
    <g id="xtick_4">
     <g id="line2d_8">
      <path d="M 220.059701 384.48 
L 220.059701 51.84 
" clip-path="url(#pe8466b28de)" style="fill: none; stroke-dasharray: 1.2,1.98; stroke-dashoffset: 0; stroke: #eeeeee; stroke-width: 1.2"/>
     </g>
     <g id="line2d_9">
      <g>
       <use xlink:href="#m2dc21fbba1" x="220.059701" y="384.48" style="stroke: #000000; stroke-width: 0.8"/>
      </g>
     </g>
     <g id="text_4">
      <!-- 4 -->
      <g transform="translate(216.878451 399.078438) scale(0.1 -0.1)">
       <defs>
        <path id="DejaVuSans-34" d="M 2419 4116 
L 825 1625 
L 2419 1625 
L 2419 4116 
z
M 2253 4666 
L 3047 4666 
L 3047 1625 
L 3713 1625 
L 3713 1100 
L 3047 1100 
L 3047 0 
L 2419 0 
L 2419 1100 
L 313 1100 
L 313 1709 
L 2253 4666 
z
" transform="scale(0.015625)"/>
       </defs>
       <use xlink:href="#DejaVuSans-34"/>
      </g>
     </g>
    </g>
    <g id="xtick_5">
     <g id="line2d_10">
      <path d="M 262.362473 384.48 
L 262.362473 51.84 
" clip-path="url(#pe8466b28de)" style="fill: none; stroke-dasharray: 1.2,1.98; stroke-dashoffset: 0; stroke: #eeeeee; stroke-width: 1.2"/>
     </g>
     <g id="line2d_11">
      <g>
       <use xlink:href="#m2dc21fbba1" x="262.362473" y="384.48" style="stroke: #000000; stroke-width: 0.8"/>
      </g>
     </g>
     <g id="text_5">
      <!-- 5 -->
      <g transform="translate(259.181223 399.078438) scale(0.1 -0.1)">
       <defs>
        <path id="DejaVuSans-35" d="M 691 4666 
L 3169 4666 
L 3169 4134 
L 1269 4134 
L 1269 2991 
Q 1406 3038 1543 3061 
Q 1681 3084 1819 3084 
Q 2600 3084 3056 2656 
Q 3513 2228 3513 1497 
Q 3513 744 3044 326 
Q 2575 -91 1722 -91 
Q 1428 -91 1123 -41 
Q 819 9 494 109 
L 494 744 
Q 775 591 1075 516 
Q 1375 441 1709 441 
Q 2250 441 2565 725 
Q 2881 1009 2881 1497 
Q 2881 1984 2565 2268 
Q 2250 2553 1709 2553 
Q 1456 2553 1204 2497 
Q 953 2441 691 2322 
L 691 4666 
z
" transform="scale(0.015625)"/>
       </defs>
       <use xlink:href="#DejaVuSans-35"/>
      </g>
     </g>
    </g>
    <g id="xtick_6">
     <g id="line2d_12">
      <path d="M 304.665245 384.48 
L 304.665245 51.84 
" clip-path="url(#pe8466b28de)" style="fill: none; stroke-dasharray: 1.2,1.98; stroke-dashoffset: 0; stroke: #eeeeee; stroke-width: 1.2"/>
     </g>
     <g id="line2d_13">
      <g>
       <use xlink:href="#m2dc21fbba1" x="304.665245" y="384.48" style="stroke: #000000; stroke-width: 0.8"/>
      </g>
     </g>
     <g id="text_6">
      <!-- 6 -->
      <g transform="translate(301.483995 399.078438) scale(0.1 -0.1)">
       <defs>
        <path id="DejaVuSans-36" d="M 2113 2584 
Q 1688 2584 1439 2293 
Q 1191 2003 1191 1497 
Q 1191 994 1439 701 
Q 1688 409 2113 409 
Q 2538 409 2786 701 
Q 3034 994 3034 1497 
Q 3034 2003 2786 2293 
Q 2538 2584 2113 2584 
z
M 3366 4563 
L 3366 3988 
Q 3128 4100 2886 4159 
Q 2644 4219 2406 4219 
Q 1781 4219 1451 3797 
Q 1122 3375 1075 2522 
Q 1259 2794 1537 2939 
Q 1816 3084 2150 3084 
Q 2853 3084 3261 2657 
Q 3669 2231 3669 1497 
Q 3669 778 3244 343 
Q 2819 -91 2113 -91 
Q 1303 -91 875 529 
Q 447 1150 447 2328 
Q 447 3434 972 4092 
Q 1497 4750 2381 4750 
Q 2619 4750 2861 4703 
Q 3103 4656 3366 4563 
z
" transform="scale(0.015625)"/>
       </defs>
       <use xlink:href="#DejaVuSans-36"/>
      </g>
     </g>
    </g>
    <g id="xtick_7">
     <g id="line2d_14">
      <path d="M 346.968017 384.48 
L 346.968017 51.84 
" clip-path="url(#pe8466b28de)" style="fill: none; stroke-dasharray: 1.2,1.98; stroke-dashoffset: 0; stroke: #eeeeee; stroke-width: 1.2"/>
     </g>
     <g id="line2d_15">
      <g>
       <use xlink:href="#m2dc21fbba1" x="346.968017" y="384.48" style="stroke: #000000; stroke-width: 0.8"/>
      </g>
     </g>
     <g id="text_7">
      <!-- 7 -->
      <g transform="translate(343.786767 399.078438) scale(0.1 -0.1)">
       <defs>
        <path id="DejaVuSans-37" d="M 525 4666 
L 3525 4666 
L 3525 4397 
L 1831 0 
L 1172 0 
L 2766 4134 
L 525 4134 
L 525 4666 
z
" transform="scale(0.015625)"/>
       </defs>
       <use xlink:href="#DejaVuSans-37"/>
      </g>
     </g>
    </g>
    <g id="xtick_8">
     <g id="line2d_16">
      <path d="M 389.270789 384.48 
L 389.270789 51.84 
" clip-path="url(#pe8466b28de)" style="fill: none; stroke-dasharray: 1.2,1.98; stroke-dashoffset: 0; stroke: #eeeeee; stroke-width: 1.2"/>
     </g>
     <g id="line2d_17">
      <g>
       <use xlink:href="#m2dc21fbba1" x="389.270789" y="384.48" style="stroke: #000000; stroke-width: 0.8"/>
      </g>
     </g>
     <g id="text_8">
      <!-- 8 -->
      <g transform="translate(386.089539 399.078438) scale(0.1 -0.1)">
       <defs>
        <path id="DejaVuSans-38" d="M 2034 2216 
Q 1584 2216 1326 1975 
Q 1069 1734 1069 1313 
Q 1069 891 1326 650 
Q 1584 409 2034 409 
Q 2484 409 2743 651 
Q 3003 894 3003 1313 
Q 3003 1734 2745 1975 
Q 2488 2216 2034 2216 
z
M 1403 2484 
Q 997 2584 770 2862 
Q 544 3141 544 3541 
Q 544 4100 942 4425 
Q 1341 4750 2034 4750 
Q 2731 4750 3128 4425 
Q 3525 4100 3525 3541 
Q 3525 3141 3298 2862 
Q 3072 2584 2669 2484 
Q 3125 2378 3379 2068 
Q 3634 1759 3634 1313 
Q 3634 634 3220 271 
Q 2806 -91 2034 -91 
Q 1263 -91 848 271 
Q 434 634 434 1313 
Q 434 1759 690 2068 
Q 947 2378 1403 2484 
z
M 1172 3481 
Q 1172 3119 1398 2916 
Q 1625 2713 2034 2713 
Q 2441 2713 2670 2916 
Q 2900 3119 2900 3481 
Q 2900 3844 2670 4047 
Q 2441 4250 2034 4250 
Q 1625 4250 1398 4047 
Q 1172 3844 1172 3481 
z
" transform="scale(0.015625)"/>
       </defs>
       <use xlink:href="#DejaVuSans-38"/>
      </g>
     </g>
    </g>
    <g id="xtick_9">
     <g id="line2d_18">
      <path d="M 431.573561 384.48 
L 431.573561 51.84 
" clip-path="url(#pe8466b28de)" style="fill: none; stroke-dasharray: 1.2,1.98; stroke-dashoffset: 0; stroke: #eeeeee; stroke-width: 1.2"/>
     </g>
     <g id="line2d_19">
      <g>
       <use xlink:href="#m2dc21fbba1" x="431.573561" y="384.48" style="stroke: #000000; stroke-width: 0.8"/>
      </g>
     </g>
     <g id="text_9">
      <!-- 9 -->
      <g transform="translate(428.392311 399.078438) scale(0.1 -0.1)">
       <defs>
        <path id="DejaVuSans-39" d="M 703 97 
L 703 672 
Q 941 559 1184 500 
Q 1428 441 1663 441 
Q 2288 441 2617 861 
Q 2947 1281 2994 2138 
Q 2813 1869 2534 1725 
Q 2256 1581 1919 1581 
Q 1219 1581 811 2004 
Q 403 2428 403 3163 
Q 403 3881 828 4315 
Q 1253 4750 1959 4750 
Q 2769 4750 3195 4129 
Q 3622 3509 3622 2328 
Q 3622 1225 3098 567 
Q 2575 -91 1691 -91 
Q 1453 -91 1209 -44 
Q 966 3 703 97 
z
M 1959 2075 
Q 2384 2075 2632 2365 
Q 2881 2656 2881 3163 
Q 2881 3666 2632 3958 
Q 2384 4250 1959 4250 
Q 1534 4250 1286 3958 
Q 1038 3666 1038 3163 
Q 1038 2656 1286 2365 
Q 1534 2075 1959 2075 
z
" transform="scale(0.015625)"/>
       </defs>
       <use xlink:href="#DejaVuSans-39"/>
      </g>
     </g>
    </g>
    <g id="xtick_10">
     <g id="line2d_20">
      <path d="M 473.876333 384.48 
L 473.876333 51.84 
" clip-path="url(#pe8466b28de)" style="fill: none; stroke-dasharray: 1.2,1.98; stroke-dashoffset: 0; stroke: #eeeeee; stroke-width: 1.2"/>
     </g>
     <g id="line2d_21">
      <g>
       <use xlink:href="#m2dc21fbba1" x="473.876333" y="384.48" style="stroke: #000000; stroke-width: 0.8"/>
      </g>
     </g>
     <g id="text_10">
      <!-- 10 -->
      <g transform="translate(467.513833 399.078438) scale(0.1 -0.1)">
       <defs>
        <path id="DejaVuSans-30" d="M 2034 4250 
Q 1547 4250 1301 3770 
Q 1056 3291 1056 2328 
Q 1056 1369 1301 889 
Q 1547 409 2034 409 
Q 2525 409 2770 889 
Q 3016 1369 3016 2328 
Q 3016 3291 2770 3770 
Q 2525 4250 2034 4250 
z
M 2034 4750 
Q 2819 4750 3233 4129 
Q 3647 3509 3647 2328 
Q 3647 1150 3233 529 
Q 2819 -91 2034 -91 
Q 1250 -91 836 529 
Q 422 1150 422 2328 
Q 422 3509 836 4129 
Q 1250 4750 2034 4750 
z
" transform="scale(0.015625)"/>
       </defs>
       <use xlink:href="#DejaVuSans-31"/>
       <use xlink:href="#DejaVuSans-30" x="63.623047"/>
      </g>
     </g>
    </g>
    <g id="text_11">
     <!-- $i$ -->
     <g transform="translate(293.8 412.756563) scale(0.1 -0.1)">
      <defs>
       <path id="DejaVuSans-Oblique-69" d="M 1172 4863 
L 1747 4863 
L 1606 4134 
L 1031 4134 
L 1172 4863 
z
M 909 3500 
L 1484 3500 
L 800 0 
L 225 0 
L 909 3500 
z
" transform="scale(0.015625)"/>
      </defs>
      <use xlink:href="#DejaVuSans-Oblique-69" transform="translate(0 0.015625)"/>
     </g>
    </g>
   </g>
   <g id="matplotlib.axis_2">
    <g id="ytick_1">
     <g id="line2d_22">
      <path d="M 72 384.48 
L 518.4 384.48 
" clip-path="url(#pe8466b28de)" style="fill: none; stroke-dasharray: 1.2,1.98; stroke-dashoffset: 0; stroke: #eeeeee; stroke-width: 1.2"/>
     </g>
     <g id="line2d_23">
      <defs>
       <path id="m11735820fe" d="M 0 0 
L -3.5 0 
" style="stroke: #000000; stroke-width: 0.8"/>
      </defs>
      <g>
       <use xlink:href="#m11735820fe" x="72" y="384.48" style="stroke: #000000; stroke-width: 0.8"/>
      </g>
     </g>
     <g id="text_12">
      <!-- 0.0 -->
      <g transform="translate(49.096875 388.279219) scale(0.1 -0.1)">
       <defs>
        <path id="DejaVuSans-2e" d="M 684 794 
L 1344 794 
L 1344 0 
L 684 0 
L 684 794 
z
" transform="scale(0.015625)"/>
       </defs>
       <use xlink:href="#DejaVuSans-30"/>
       <use xlink:href="#DejaVuSans-2e" x="63.623047"/>
       <use xlink:href="#DejaVuSans-30" x="95.410156"/>
      </g>
     </g>
    </g>
    <g id="ytick_2">
     <g id="line2d_24">
      <path d="M 72 323.943512 
L 518.4 323.943512 
" clip-path="url(#pe8466b28de)" style="fill: none; stroke-dasharray: 1.2,1.98; stroke-dashoffset: 0; stroke: #eeeeee; stroke-width: 1.2"/>
     </g>
     <g id="line2d_25">
      <g>
       <use xlink:href="#m11735820fe" x="72" y="323.943512" style="stroke: #000000; stroke-width: 0.8"/>
      </g>
     </g>
     <g id="text_13">
      <!-- 0.2 -->
      <g transform="translate(49.096875 327.74273) scale(0.1 -0.1)">
       <use xlink:href="#DejaVuSans-30"/>
       <use xlink:href="#DejaVuSans-2e" x="63.623047"/>
       <use xlink:href="#DejaVuSans-32" x="95.410156"/>
      </g>
     </g>
    </g>
    <g id="ytick_3">
     <g id="line2d_26">
      <path d="M 72 263.407023 
L 518.4 263.407023 
" clip-path="url(#pe8466b28de)" style="fill: none; stroke-dasharray: 1.2,1.98; stroke-dashoffset: 0; stroke: #eeeeee; stroke-width: 1.2"/>
     </g>
     <g id="line2d_27">
      <g>
       <use xlink:href="#m11735820fe" x="72" y="263.407023" style="stroke: #000000; stroke-width: 0.8"/>
      </g>
     </g>
     <g id="text_14">
      <!-- 0.4 -->
      <g transform="translate(49.096875 267.206242) scale(0.1 -0.1)">
       <use xlink:href="#DejaVuSans-30"/>
       <use xlink:href="#DejaVuSans-2e" x="63.623047"/>
       <use xlink:href="#DejaVuSans-34" x="95.410156"/>
      </g>
     </g>
    </g>
    <g id="ytick_4">
     <g id="line2d_28">
      <path d="M 72 202.870535 
L 518.4 202.870535 
" clip-path="url(#pe8466b28de)" style="fill: none; stroke-dasharray: 1.2,1.98; stroke-dashoffset: 0; stroke: #eeeeee; stroke-width: 1.2"/>
     </g>
     <g id="line2d_29">
      <g>
       <use xlink:href="#m11735820fe" x="72" y="202.870535" style="stroke: #000000; stroke-width: 0.8"/>
      </g>
     </g>
     <g id="text_15">
      <!-- 0.6 -->
      <g transform="translate(49.096875 206.669754) scale(0.1 -0.1)">
       <use xlink:href="#DejaVuSans-30"/>
       <use xlink:href="#DejaVuSans-2e" x="63.623047"/>
       <use xlink:href="#DejaVuSans-36" x="95.410156"/>
      </g>
     </g>
    </g>
    <g id="ytick_5">
     <g id="line2d_30">
      <path d="M 72 142.334046 
L 518.4 142.334046 
" clip-path="url(#pe8466b28de)" style="fill: none; stroke-dasharray: 1.2,1.98; stroke-dashoffset: 0; stroke: #eeeeee; stroke-width: 1.2"/>
     </g>
     <g id="line2d_31">
      <g>
       <use xlink:href="#m11735820fe" x="72" y="142.334046" style="stroke: #000000; stroke-width: 0.8"/>
      </g>
     </g>
     <g id="text_16">
      <!-- 0.8 -->
      <g transform="translate(49.096875 146.133265) scale(0.1 -0.1)">
       <use xlink:href="#DejaVuSans-30"/>
       <use xlink:href="#DejaVuSans-2e" x="63.623047"/>
       <use xlink:href="#DejaVuSans-38" x="95.410156"/>
      </g>
     </g>
    </g>
    <g id="ytick_6">
     <g id="line2d_32">
      <path d="M 72 81.797558 
L 518.4 81.797558 
" clip-path="url(#pe8466b28de)" style="fill: none; stroke-dasharray: 1.2,1.98; stroke-dashoffset: 0; stroke: #eeeeee; stroke-width: 1.2"/>
     </g>
     <g id="line2d_33">
      <g>
       <use xlink:href="#m11735820fe" x="72" y="81.797558" style="stroke: #000000; stroke-width: 0.8"/>
      </g>
     </g>
     <g id="text_17">
      <!-- 1.0 -->
      <g transform="translate(49.096875 85.596777) scale(0.1 -0.1)">
       <use xlink:href="#DejaVuSans-31"/>
       <use xlink:href="#DejaVuSans-2e" x="63.623047"/>
       <use xlink:href="#DejaVuSans-30" x="95.410156"/>
      </g>
     </g>
    </g>
    <g id="text_18">
     <!-- $P_{i}$ -->
     <g transform="translate(43.017187 222.31) rotate(-90) scale(0.1 -0.1)">
      <defs>
       <path id="DejaVuSans-Oblique-50" d="M 1081 4666 
L 2541 4666 
Q 3178 4666 3512 4369 
Q 3847 4072 3847 3500 
Q 3847 2731 3353 2303 
Q 2859 1875 1966 1875 
L 1172 1875 
L 806 0 
L 172 0 
L 1081 4666 
z
M 1613 4147 
L 1275 2394 
L 2069 2394 
Q 2606 2394 2893 2669 
Q 3181 2944 3181 3456 
Q 3181 3784 2986 3965 
Q 2791 4147 2438 4147 
L 1613 4147 
z
" transform="scale(0.015625)"/>
      </defs>
      <use xlink:href="#DejaVuSans-Oblique-50" transform="translate(0 0.09375)"/>
      <use xlink:href="#DejaVuSans-Oblique-69" transform="translate(60.302734 -16.3125) scale(0.7)"/>
     </g>
    </g>
   </g>
   <g id="LineCollection_1">
    <path d="M 85.748401 327.34414 
L 100.554371 327.34414 
" clip-path="url(#pe8466b28de)" style="fill: none; stroke: #1f77b4; stroke-width: 1.5"/>
    <path d="M 128.051173 262.970649 
L 142.857143 262.970649 
" clip-path="url(#pe8466b28de)" style="fill: none; stroke: #1f77b4; stroke-width: 1.5"/>
    <path d="M 170.353945 185.205453 
L 185.159915 185.205453 
" clip-path="url(#pe8466b28de)" style="fill: none; stroke: #1f77b4; stroke-width: 1.5"/>
    <path d="M 212.656716 124.613243 
L 227.462687 124.613243 
" clip-path="url(#pe8466b28de)" style="fill: none; stroke: #1f77b4; stroke-width: 1.5"/>
    <path d="M 254.959488 99.444333 
L 269.765458 99.444333 
" clip-path="url(#pe8466b28de)" style="fill: none; stroke: #1f77b4; stroke-width: 1.5"/>
    <path d="M 297.26226 67.68 
L 312.06823 67.68 
" clip-path="url(#pe8466b28de)" style="fill: none; stroke: #1f77b4; stroke-width: 1.5"/>
    <path d="M 339.565032 89.779144 
L 354.371002 89.779144 
" clip-path="url(#pe8466b28de)" style="fill: none; stroke: #1f77b4; stroke-width: 1.5"/>
    <path d="M 381.867804 117.83048 
L 396.673774 117.83048 
" clip-path="url(#pe8466b28de)" style="fill: none; stroke: #1f77b4; stroke-width: 1.5"/>
    <path d="M 424.170576 167.646117 
L 438.976546 167.646117 
" clip-path="url(#pe8466b28de)" style="fill: none; stroke: #1f77b4; stroke-width: 1.5"/>
    <path d="M 466.473348 290.413516 
L 481.279318 290.413516 
" clip-path="url(#pe8466b28de)" style="fill: none; stroke: #1f77b4; stroke-width: 1.5"/>
   </g>
   <g id="LineCollection_2">
    <path d="M 85.748401 361.416991 
L 100.554371 361.416991 
" clip-path="url(#pe8466b28de)" style="fill: none; stroke: #1f77b4; stroke-width: 1.5"/>
    <path d="M 128.051173 293.034216 
L 142.857143 293.034216 
" clip-path="url(#pe8466b28de)" style="fill: none; stroke: #1f77b4; stroke-width: 1.5"/>
    <path d="M 170.353945 219.500038 
L 185.159915 219.500038 
" clip-path="url(#pe8466b28de)" style="fill: none; stroke: #1f77b4; stroke-width: 1.5"/>
    <path d="M 212.656716 159.349536 
L 227.462687 159.349536 
" clip-path="url(#pe8466b28de)" style="fill: none; stroke: #1f77b4; stroke-width: 1.5"/>
    <path d="M 254.959488 126.281756 
L 269.765458 126.281756 
" clip-path="url(#pe8466b28de)" style="fill: none; stroke: #1f77b4; stroke-width: 1.5"/>
    <path d="M 297.26226 94.780293 
L 312.06823 94.780293 
" clip-path="url(#pe8466b28de)" style="fill: none; stroke: #1f77b4; stroke-width: 1.5"/>
    <path d="M 339.565032 113.522808 
L 354.371002 113.522808 
" clip-path="url(#pe8466b28de)" style="fill: none; stroke: #1f77b4; stroke-width: 1.5"/>
    <path d="M 381.867804 137.089433 
L 396.673774 137.089433 
" clip-path="url(#pe8466b28de)" style="fill: none; stroke: #1f77b4; stroke-width: 1.5"/>
    <path d="M 424.170576 182.465843 
L 438.976546 182.465843 
" clip-path="url(#pe8466b28de)" style="fill: none; stroke: #1f77b4; stroke-width: 1.5"/>
    <path d="M 466.473348 297.458204 
L 481.279318 297.458204 
" clip-path="url(#pe8466b28de)" style="fill: none; stroke: #1f77b4; stroke-width: 1.5"/>
   </g>
   <g id="LineCollection_3">
    <path d="M 93.151386 361.416991 
L 93.151386 327.34414 
" clip-path="url(#pe8466b28de)" style="fill: none; stroke: #1f77b4; stroke-width: 1.5"/>
    <path d="M 135.454158 293.034216 
L 135.454158 262.970649 
" clip-path="url(#pe8466b28de)" style="fill: none; stroke: #1f77b4; stroke-width: 1.5"/>
    <path d="M 177.75693 219.500038 
L 177.75693 185.205453 
" clip-path="url(#pe8466b28de)" style="fill: none; stroke: #1f77b4; stroke-width: 1.5"/>
    <path d="M 220.059701 159.349536 
L 220.059701 124.613243 
" clip-path="url(#pe8466b28de)" style="fill: none; stroke: #1f77b4; stroke-width: 1.5"/>
    <path d="M 262.362473 126.281756 
L 262.362473 99.444333 
" clip-path="url(#pe8466b28de)" style="fill: none; stroke: #1f77b4; stroke-width: 1.5"/>
    <path d="M 304.665245 94.780293 
L 304.665245 67.68 
" clip-path="url(#pe8466b28de)" style="fill: none; stroke: #1f77b4; stroke-width: 1.5"/>
    <path d="M 346.968017 113.522808 
L 346.968017 89.779144 
" clip-path="url(#pe8466b28de)" style="fill: none; stroke: #1f77b4; stroke-width: 1.5"/>
    <path d="M 389.270789 137.089433 
L 389.270789 117.83048 
" clip-path="url(#pe8466b28de)" style="fill: none; stroke: #1f77b4; stroke-width: 1.5"/>
    <path d="M 431.573561 182.465843 
L 431.573561 167.646117 
" clip-path="url(#pe8466b28de)" style="fill: none; stroke: #1f77b4; stroke-width: 1.5"/>
    <path d="M 473.876333 297.458204 
L 473.876333 290.413516 
" clip-path="url(#pe8466b28de)" style="fill: none; stroke: #1f77b4; stroke-width: 1.5"/>
   </g>
   <g id="line2d_34">
    <defs>
     <path id="m93f82e20a4" d="M 0 1.5 
C 0.397805 1.5 0.77937 1.341951 1.06066 1.06066 
C 1.341951 0.77937 1.5 0.397805 1.5 0 
C 1.5 -0.397805 1.341951 -0.77937 1.06066 -1.06066 
C 0.77937 -1.341951 0.397805 -1.5 0 -1.5 
C -0.397805 -1.5 -0.77937 -1.341951 -1.06066 -1.06066 
C -1.341951 -0.77937 -1.5 -0.397805 -1.5 0 
C -1.5 0.397805 -1.341951 0.77937 -1.06066 1.06066 
C -0.77937 1.341951 -0.397805 1.5 0 1.5 
z
" style="stroke: #000000"/>
    </defs>
    <g clip-path="url(#pe8466b28de)">
     <use xlink:href="#m93f82e20a4" x="93.151386" y="354.211756" style="stroke: #000000"/>
     <use xlink:href="#m93f82e20a4" x="135.454158" y="278.541145" style="stroke: #000000"/>
     <use xlink:href="#m93f82e20a4" x="177.75693" y="202.870535" style="stroke: #000000"/>
     <use xlink:href="#m93f82e20a4" x="220.059701" y="142.334046" style="stroke: #000000"/>
     <use xlink:href="#m93f82e20a4" x="262.362473" y="112.065802" style="stroke: #000000"/>
     <use xlink:href="#m93f82e20a4" x="304.665245" y="81.797558" style="stroke: #000000"/>
     <use xlink:href="#m93f82e20a4" x="346.968017" y="96.93168" style="stroke: #000000"/>
     <use xlink:href="#m93f82e20a4" x="389.270789" y="127.199924" style="stroke: #000000"/>
     <use xlink:href="#m93f82e20a4" x="431.573561" y="172.602291" style="stroke: #000000"/>
     <use xlink:href="#m93f82e20a4" x="473.876333" y="293.675267" style="stroke: #000000"/>
    </g>
   </g>
   <g id="patch_3">
    <path d="M 72 384.48 
L 72 51.84 
" style="fill: none; stroke: #000000; stroke-width: 0.8; stroke-linejoin: miter; stroke-linecap: square"/>
   </g>
   <g id="patch_4">
    <path d="M 518.4 384.48 
L 518.4 51.84 
" style="fill: none; stroke: #000000; stroke-width: 0.8; stroke-linejoin: miter; stroke-linecap: square"/>
   </g>
   <g id="patch_5">
    <path d="M 72 384.48 
L 518.4 384.48 
" style="fill: none; stroke: #000000; stroke-width: 0.8; stroke-linejoin: miter; stroke-linecap: square"/>
   </g>
   <g id="patch_6">
    <path d="M 72 51.84 
L 518.4 51.84 
" style="fill: none; stroke: #000000; stroke-width: 0.8; stroke-linejoin: miter; stroke-linecap: square"/>
   </g>
   <g id="legend_1">
    <g id="patch_7">
     <path d="M 436.69375 89.19625 
L 511.4 89.19625 
Q 513.4 89.19625 513.4 87.19625 
L 513.4 58.84 
Q 513.4 56.84 511.4 56.84 
L 436.69375 56.84 
Q 434.69375 56.84 434.69375 58.84 
L 434.69375 87.19625 
Q 434.69375 89.19625 436.69375 89.19625 
z
" style="fill: #ffffff; opacity: 0.8; stroke: #cccccc; stroke-linejoin: miter"/>
    </g>
    <g id="patch_8">
     <path d="M 438.69375 68.438437 
L 458.69375 68.438437 
L 458.69375 61.438437 
L 438.69375 61.438437 
z
" style="fill: #008000; fill-opacity: 0.7; stroke: #008000; stroke-opacity: 0.7; stroke-linejoin: miter"/>
    </g>
    <g id="text_19">
     <!-- Samples -->
     <g transform="translate(466.69375 68.438437) scale(0.1 -0.1)">
      <defs>
       <path id="DejaVuSans-53" d="M 3425 4513 
L 3425 3897 
Q 3066 4069 2747 4153 
Q 2428 4238 2131 4238 
Q 1616 4238 1336 4038 
Q 1056 3838 1056 3469 
Q 1056 3159 1242 3001 
Q 1428 2844 1947 2747 
L 2328 2669 
Q 3034 2534 3370 2195 
Q 3706 1856 3706 1288 
Q 3706 609 3251 259 
Q 2797 -91 1919 -91 
Q 1588 -91 1214 -16 
Q 841 59 441 206 
L 441 856 
Q 825 641 1194 531 
Q 1563 422 1919 422 
Q 2459 422 2753 634 
Q 3047 847 3047 1241 
Q 3047 1584 2836 1778 
Q 2625 1972 2144 2069 
L 1759 2144 
Q 1053 2284 737 2584 
Q 422 2884 422 3419 
Q 422 4038 858 4394 
Q 1294 4750 2059 4750 
Q 2388 4750 2728 4690 
Q 3069 4631 3425 4513 
z
" transform="scale(0.015625)"/>
       <path id="DejaVuSans-61" d="M 2194 1759 
Q 1497 1759 1228 1600 
Q 959 1441 959 1056 
Q 959 750 1161 570 
Q 1363 391 1709 391 
Q 2188 391 2477 730 
Q 2766 1069 2766 1631 
L 2766 1759 
L 2194 1759 
z
M 3341 1997 
L 3341 0 
L 2766 0 
L 2766 531 
Q 2569 213 2275 61 
Q 1981 -91 1556 -91 
Q 1019 -91 701 211 
Q 384 513 384 1019 
Q 384 1609 779 1909 
Q 1175 2209 1959 2209 
L 2766 2209 
L 2766 2266 
Q 2766 2663 2505 2880 
Q 2244 3097 1772 3097 
Q 1472 3097 1187 3025 
Q 903 2953 641 2809 
L 641 3341 
Q 956 3463 1253 3523 
Q 1550 3584 1831 3584 
Q 2591 3584 2966 3190 
Q 3341 2797 3341 1997 
z
" transform="scale(0.015625)"/>
       <path id="DejaVuSans-6d" d="M 3328 2828 
Q 3544 3216 3844 3400 
Q 4144 3584 4550 3584 
Q 5097 3584 5394 3201 
Q 5691 2819 5691 2113 
L 5691 0 
L 5113 0 
L 5113 2094 
Q 5113 2597 4934 2840 
Q 4756 3084 4391 3084 
Q 3944 3084 3684 2787 
Q 3425 2491 3425 1978 
L 3425 0 
L 2847 0 
L 2847 2094 
Q 2847 2600 2669 2842 
Q 2491 3084 2119 3084 
Q 1678 3084 1418 2786 
Q 1159 2488 1159 1978 
L 1159 0 
L 581 0 
L 581 3500 
L 1159 3500 
L 1159 2956 
Q 1356 3278 1631 3431 
Q 1906 3584 2284 3584 
Q 2666 3584 2933 3390 
Q 3200 3197 3328 2828 
z
" transform="scale(0.015625)"/>
       <path id="DejaVuSans-70" d="M 1159 525 
L 1159 -1331 
L 581 -1331 
L 581 3500 
L 1159 3500 
L 1159 2969 
Q 1341 3281 1617 3432 
Q 1894 3584 2278 3584 
Q 2916 3584 3314 3078 
Q 3713 2572 3713 1747 
Q 3713 922 3314 415 
Q 2916 -91 2278 -91 
Q 1894 -91 1617 61 
Q 1341 213 1159 525 
z
M 3116 1747 
Q 3116 2381 2855 2742 
Q 2594 3103 2138 3103 
Q 1681 3103 1420 2742 
Q 1159 2381 1159 1747 
Q 1159 1113 1420 752 
Q 1681 391 2138 391 
Q 2594 391 2855 752 
Q 3116 1113 3116 1747 
z
" transform="scale(0.015625)"/>
       <path id="DejaVuSans-6c" d="M 603 4863 
L 1178 4863 
L 1178 0 
L 603 0 
L 603 4863 
z
" transform="scale(0.015625)"/>
       <path id="DejaVuSans-65" d="M 3597 1894 
L 3597 1613 
L 953 1613 
Q 991 1019 1311 708 
Q 1631 397 2203 397 
Q 2534 397 2845 478 
Q 3156 559 3463 722 
L 3463 178 
Q 3153 47 2828 -22 
Q 2503 -91 2169 -91 
Q 1331 -91 842 396 
Q 353 884 353 1716 
Q 353 2575 817 3079 
Q 1281 3584 2069 3584 
Q 2775 3584 3186 3129 
Q 3597 2675 3597 1894 
z
M 3022 2063 
Q 3016 2534 2758 2815 
Q 2500 3097 2075 3097 
Q 1594 3097 1305 2825 
Q 1016 2553 972 2059 
L 3022 2063 
z
" transform="scale(0.015625)"/>
       <path id="DejaVuSans-73" d="M 2834 3397 
L 2834 2853 
Q 2591 2978 2328 3040 
Q 2066 3103 1784 3103 
Q 1356 3103 1142 2972 
Q 928 2841 928 2578 
Q 928 2378 1081 2264 
Q 1234 2150 1697 2047 
L 1894 2003 
Q 2506 1872 2764 1633 
Q 3022 1394 3022 966 
Q 3022 478 2636 193 
Q 2250 -91 1575 -91 
Q 1294 -91 989 -36 
Q 684 19 347 128 
L 347 722 
Q 666 556 975 473 
Q 1284 391 1588 391 
Q 1994 391 2212 530 
Q 2431 669 2431 922 
Q 2431 1156 2273 1281 
Q 2116 1406 1581 1522 
L 1381 1569 
Q 847 1681 609 1914 
Q 372 2147 372 2553 
Q 372 3047 722 3315 
Q 1072 3584 1716 3584 
Q 2034 3584 2315 3537 
Q 2597 3491 2834 3397 
z
" transform="scale(0.015625)"/>
      </defs>
      <use xlink:href="#DejaVuSans-53"/>
      <use xlink:href="#DejaVuSans-61" x="63.476562"/>
      <use xlink:href="#DejaVuSans-6d" x="124.755859"/>
      <use xlink:href="#DejaVuSans-70" x="222.167969"/>
      <use xlink:href="#DejaVuSans-6c" x="285.644531"/>
      <use xlink:href="#DejaVuSans-65" x="313.427734"/>
      <use xlink:href="#DejaVuSans-73" x="374.951172"/>
     </g>
    </g>
    <g id="line2d_35">
     <g>
      <use xlink:href="#m93f82e20a4" x="448.69375" y="79.616562" style="stroke: #000000"/>
     </g>
    </g>
    <g id="text_20">
     <!-- Truth -->
     <g transform="translate(466.69375 83.116562) scale(0.1 -0.1)">
      <defs>
       <path id="DejaVuSans-54" d="M -19 4666 
L 3928 4666 
L 3928 4134 
L 2272 4134 
L 2272 0 
L 1638 0 
L 1638 4134 
L -19 4134 
L -19 4666 
z
" transform="scale(0.015625)"/>
       <path id="DejaVuSans-72" d="M 2631 2963 
Q 2534 3019 2420 3045 
Q 2306 3072 2169 3072 
Q 1681 3072 1420 2755 
Q 1159 2438 1159 1844 
L 1159 0 
L 581 0 
L 581 3500 
L 1159 3500 
L 1159 2956 
Q 1341 3275 1631 3429 
Q 1922 3584 2338 3584 
Q 2397 3584 2469 3576 
Q 2541 3569 2628 3553 
L 2631 2963 
z
" transform="scale(0.015625)"/>
       <path id="DejaVuSans-75" d="M 544 1381 
L 544 3500 
L 1119 3500 
L 1119 1403 
Q 1119 906 1312 657 
Q 1506 409 1894 409 
Q 2359 409 2629 706 
Q 2900 1003 2900 1516 
L 2900 3500 
L 3475 3500 
L 3475 0 
L 2900 0 
L 2900 538 
Q 2691 219 2414 64 
Q 2138 -91 1772 -91 
Q 1169 -91 856 284 
Q 544 659 544 1381 
z
M 1991 3584 
L 1991 3584 
z
" transform="scale(0.015625)"/>
       <path id="DejaVuSans-74" d="M 1172 4494 
L 1172 3500 
L 2356 3500 
L 2356 3053 
L 1172 3053 
L 1172 1153 
Q 1172 725 1289 603 
Q 1406 481 1766 481 
L 2356 481 
L 2356 0 
L 1766 0 
Q 1100 0 847 248 
Q 594 497 594 1153 
L 594 3053 
L 172 3053 
L 172 3500 
L 594 3500 
L 594 4494 
L 1172 4494 
z
" transform="scale(0.015625)"/>
       <path id="DejaVuSans-68" d="M 3513 2113 
L 3513 0 
L 2938 0 
L 2938 2094 
Q 2938 2591 2744 2837 
Q 2550 3084 2163 3084 
Q 1697 3084 1428 2787 
Q 1159 2491 1159 1978 
L 1159 0 
L 581 0 
L 581 4863 
L 1159 4863 
L 1159 2956 
Q 1366 3272 1645 3428 
Q 1925 3584 2291 3584 
Q 2894 3584 3203 3211 
Q 3513 2838 3513 2113 
z
" transform="scale(0.015625)"/>
      </defs>
      <use xlink:href="#DejaVuSans-54"/>
      <use xlink:href="#DejaVuSans-72" x="46.333984"/>
      <use xlink:href="#DejaVuSans-75" x="87.447266"/>
      <use xlink:href="#DejaVuSans-74" x="150.826172"/>
      <use xlink:href="#DejaVuSans-68" x="190.035156"/>
     </g>
    </g>
   </g>
  </g>
 </g>
 <defs>
  <clipPath id="pe8466b28de">
   <rect x="72" y="51.84" width="446.4" height="332.64"/>
  </clipPath>
 </defs>
</svg>
